<svg xmlns="http://www.w3.org/2000/svg" width="70" height="70" viewBox="0 0 70 70"><defs><style>.a{fill:rgba(38,217,199,0.1);}.b{fill:#13b59c;}.c{fill:#fff;}</style></defs><circle class="a" cx="35" cy="35" r="35"/><g transform="translate(5.572 -4.936)"><path class="b" d="M45.419,51.817a6.707,6.707,0,0,1-1.806,4.935,6.926,6.926,0,0,1-4.845,2.184H19.094a6.793,6.793,0,0,1-6.663-6.919c.076-1.008.1-2.489.974-3.161a.758.758,0,0,1,.291,0h4.64V21.675a2.45,2.45,0,0,1,0-.3.77.77,0,0,1,.578-.431.779.779,0,0,1,.686.232l2,2.128c2.984-3.136,2.112-3.149,5.058,0,2.984-3.149,2.112-3.149,5.058,0,3-3.149,2.124-3.149,5.121,0,3-3.149,2.1-3.161,5.058,0l2.01-2.128a.78.78,0,0,1,1.075,0,.8.8,0,0,1,.24.523v5.961ZM17.412,22.4c0,.412.013-1.157.051-.05Z" transform="translate(0 0)"/><path class="c" d="M31.812,44.54H13.933c-1.249,3.336,1.362,7.272,4.785,7.184H34.086A7.084,7.084,0,0,1,31.812,44.54Z" transform="translate(0.296 5.737)"/><path class="c" d="M28.35,28.122c0-.625-.212-1.812.75-1.812s.737,1.174.75,1.8h.85a.75.75,0,1,1,0,1.5H28.525c-.975,0-.937,1.662,0,1.649h1.149a2.332,2.332,0,0,1,.175,4.66c0,.625.212,1.812-.75,1.824s-.725-1.174-.75-1.8H27.5a.75.75,0,0,1,0-1.5h2.174c.975,0,.937-1.674,0-1.662H28.525a2.332,2.332,0,1,1-.175-4.66Zm6.472,16.655H23.39a.75.75,0,0,1,0-1.5H34.822a.75.75,0,0,1,0,1.5Zm0-4.31H23.39a.75.75,0,0,1,0-1.5H34.822a.75.75,0,0,1,0,1.5Z" transform="translate(2.801 1.289)"/></g></svg>