<svg xmlns="http://www.w3.org/2000/svg" width="1357.114" height="1288.588" viewBox="0 0 1357.114 1288.588"><defs><style>.a{opacity:0.3;}.b,.f,.h{fill:none;}.b{stroke:#000;opacity:0.4;}.c{fill:#c2ccff;}.d{fill:#09834b;}.e{fill:#13b59c;}.f{stroke:#09834b;}.g{stroke:none;}</style></defs><g class="a" transform="matrix(0.966, 0.259, -0.259, 0.966, -415.324, 10.621)"><g class="b" transform="translate(791.21 -223)"><circle class="g" cx="492" cy="492" r="492"/><circle class="h" cx="492" cy="492" r="491.5"/></g><g class="b" transform="translate(734.21 -167)"><ellipse class="g" cx="477.5" cy="478" rx="477.5" ry="478"/><ellipse class="h" cx="477.5" cy="478" rx="477" ry="477.5"/></g><g class="b" transform="translate(646.21 -167)"><ellipse class="g" cx="486.5" cy="487" rx="486.5" ry="487"/><ellipse class="h" cx="486.5" cy="487" rx="486" ry="486.5"/></g><g class="b" transform="translate(677.21 -99)"><ellipse class="g" cx="490" cy="489" rx="490" ry="489"/><ellipse class="h" cx="490" cy="489" rx="489.5" ry="488.5"/></g><circle class="c" cx="9" cy="9" r="9" transform="translate(747.21 357)"/><circle class="d" cx="9" cy="9" r="9" transform="translate(1257.21 303)"/><circle class="d" cx="8" cy="8" r="8" transform="translate(900.21 724)"/><ellipse class="e" cx="19" cy="19.5" rx="19" ry="19.5" transform="translate(713.754 588.407)"/><g class="f" transform="translate(1257.21 815)"><circle class="g" cx="20" cy="20" r="20"/><circle class="h" cx="20" cy="20" r="19.5"/></g></g></svg>