<svg xmlns="http://www.w3.org/2000/svg" width="148.203" height="45.267" viewBox="0 0 148.203 45.267"><defs><style>.a{fill:#13b59c;stroke:#13b59c;}.b{stroke:#000;}</style></defs><g transform="translate(-112.163 -93.157)"><path class="a" d="M-85.931-10.138q0,3.94-3.752,3.94a12.026,12.026,0,0,1-4.836-1.61A13.642,13.642,0,0,0-100.4-9.587,14.176,14.176,0,0,0-110.026-5.5a14.28,14.28,0,0,0-3.4,4.639,4.99,4.99,0,0,1-.083-1.08A9.817,9.817,0,0,1-112.006-7a12.655,12.655,0,0,1,3.564-3.9,9.4,9.4,0,0,1,5.607-1.758,8.92,8.92,0,0,1,3.773.741,30.7,30.7,0,0,1,3.293,2.076A6.552,6.552,0,0,0-92.58-8.4,5.09,5.09,0,0,0-88.2-10.71a3.367,3.367,0,0,0,.709-1.949,4.088,4.088,0,0,0-1-2.807A3.335,3.335,0,0,0-91.121-16.6a14.392,14.392,0,0,0-4.94,1.536A14.392,14.392,0,0,1-101-13.528a4.893,4.893,0,0,1-2.668-1.123Q-106.92-17-106.92-19.036a2.61,2.61,0,0,1,1.23-2.055,4.292,4.292,0,0,1,2.272-.974l.042-.233L-104.4-23.76a4.548,4.548,0,0,1-.855-2.648q0-4.872,7.837-4.872.229-.042.313-.381v-2.351h-10.8v-2.542h21.427v2.542h-7.4v3.559q0,1,.563,1.229.354,0,.9-.657l.792-.974A1.929,1.929,0,0,1-90.5-31.28a3.271,3.271,0,0,1,2.5,1.525,3.7,3.7,0,0,1,.709,1.4l-2.189,2.542a4.9,4.9,0,0,0-.4-1.779q-.479-1.08-1.251-1.08a1.271,1.271,0,0,0-.688.275q-.4.275-.4.551a1.541,1.541,0,0,0,.271.763,5.274,5.274,0,0,1,.354.657,4.361,4.361,0,0,1,.146,1.229,3.841,3.841,0,0,1-2.293,3.877,12.545,12.545,0,0,1-4.794.678q-4.169,0-5.69,1.885a2.013,2.013,0,0,0-.584,1.208,1.457,1.457,0,0,0,.625,1.112,2,2,0,0,0,1.251.477,13.509,13.509,0,0,0,4.565-1.674,16.221,16.221,0,0,1,6.42-2.013,4.417,4.417,0,0,1,3.752,2.013,10.464,10.464,0,0,1,1.772,4.152A17.471,17.471,0,0,1-85.931-10.138Zm-8.108-17.011q0-2.563-2.689-2.563a6.482,6.482,0,0,0-4.106,1.546,4.781,4.781,0,0,0-2.084,3.792,2.626,2.626,0,0,0,.886,1.991,2.894,2.894,0,0,0,2.032.826,5.224,5.224,0,0,0,2.689-.869A8.456,8.456,0,0,0-95.1-24.247,4.4,4.4,0,0,0-94.039-27.149Zm29.159-6.864h-5.69v4.173a3.83,3.83,0,0,1,1.417.572v2.5a15.527,15.527,0,0,0-5.169-.869,10.935,10.935,0,0,0-3.752.657q-2.418.869-2.439,2.479-.042,1.695,4.731,1.695.1,0,1.355-.064l1.251-.064v1.949q-2.835.085-3.543.148-4.981.445-4.981,2.923,0,1.377,1.73,2.161a6.982,6.982,0,0,0,2.918.614q6.774,0,10.963-6.1v5.36a15.322,15.322,0,0,1-8.483,2.309,16.664,16.664,0,0,1-9.254-2.521,3.437,3.437,0,0,1-1.9-2.818,3.449,3.449,0,0,1,1.334-2.69,13.169,13.169,0,0,1,2.689-1.61l-1.376-.805a2.17,2.17,0,0,1-1.23-1.928q0-2.627,3.9-3.771a23.594,23.594,0,0,1,6.649-.869v-3.432h-13.36v-2.542H-64.88Zm21.927,0H-65.359v-2.542h22.406Zm-4.481,9.3q0-5.084-4.731-5.084-3.5,0-5.857,3.728a12.961,12.961,0,0,0-2.084,7.033v6.165l-3.418-1.822V-30.624h3.585V-28.1l1.855-1.419a8.4,8.4,0,0,1,5.19-1.885,7.672,7.672,0,0,1,6.149,2.923A9.965,9.965,0,0,1-44.454-21.9q0,4.809-4,9.236l-4.023-2.563q1.876-1.885,3.189-3.474A9.153,9.153,0,0,0-47.434-24.713Z" transform="translate(302.819 137.776)"/><path class="b" d="M21.9-38.241H-.337v-2.535H21.9Zm-4.448,9.275q0-5.071-4.7-5.071-3.476,0-5.814,3.719A12.972,12.972,0,0,0,4.877-23.3v6.148L1.484-18.972V-34.86H5.042v2.514l1.841-1.416a8.313,8.313,0,0,1,5.152-1.88,7.6,7.6,0,0,1,6.1,2.916,9.969,9.969,0,0,1,2.276,6.571q0,4.8-3.972,9.212L12.449-19.5q1.862-1.88,3.165-3.465A9.158,9.158,0,0,0,17.456-28.965Zm25.9-9.275H37.711v4.162a3.792,3.792,0,0,1,1.407.57v2.493a15.346,15.346,0,0,0-5.131-.866,10.808,10.808,0,0,0-3.724.655q-2.4.866-2.421,2.472-.041,1.69,4.7,1.69.1,0,1.345-.063l1.241-.063v1.944q-2.814.085-3.517.148-4.945.444-4.945,2.916,0,1.373,1.717,2.155a6.9,6.9,0,0,0,2.9.613q6.724,0,10.883-6.085v5.346a15.155,15.155,0,0,1-8.421,2.3,16.483,16.483,0,0,1-9.186-2.514,3.429,3.429,0,0,1-1.883-2.81,3.446,3.446,0,0,1,1.324-2.683,13.06,13.06,0,0,1,2.669-1.606l-1.365-.8a2.165,2.165,0,0,1-1.221-1.923q0-2.62,3.869-3.761a23.316,23.316,0,0,1,6.6-.866v-3.423H21.283v-2.535H43.359Zm19.779,0H60.676v2.81q0,.655-.041,1.521a5.228,5.228,0,0,1-.352,1.162L53.931-24.74q0,1.247,1.821,2.472a2.8,2.8,0,0,0,1.572.528,4.6,4.6,0,0,0,2.938-1.394,7.8,7.8,0,0,0,1.469-1.775v6.719q0,.74-2.545.761A4.44,4.44,0,0,1,54.78-19.9a34.663,34.663,0,0,0-1.572-3.93l-4.945,5.979H43.214l7.717-8.959q-.041-3.064-3.021-3.064-.414,0-1.262.063t-1.262.063v-5.979a5.141,5.141,0,0,1,4.9,2.852,16.539,16.539,0,0,1,1.159,2.937l.538,1.838,4.448-5.768a2.291,2.291,0,0,0,.29-.739v-3.634H42.759v-2.535H63.138Zm18.186,0H70.855v17.008a2.466,2.466,0,0,0,.455,1.394,1.37,1.37,0,0,0,1.159.739q3.083,0,3.083-6.508l4.159,2.43q-2.379,5.388-7.365,5.367a5.064,5.064,0,0,1-4.51-2.7,4.456,4.456,0,0,1-.7-2.324v-15.4H62.807v-2.535h4.324v-7.1l3.724,2.641v4.458H81.324Z" transform="translate(113 142)"/></g></svg>