<svg xmlns="http://www.w3.org/2000/svg" xmlns:xlink="http://www.w3.org/1999/xlink" width="547.781" height="341.998" viewBox="0 0 547.781 341.998"><defs><style>.a{fill:#1db3d6;opacity:0.1;}.b{fill:#cce2ff;}.c{fill:#cee3ff;}.d{fill:#fff;}.e{fill:#c2ddff;}.f{fill:#b6d5ff;}.g{fill:#740303;}.h{fill:#5d0202;}.i{fill:#f09959;}.j{fill:#f37168;}.k{fill:#d54a41;}.l{fill:#e38540;}.m{fill:#f5dc95;}.n{fill:#eaeaea;}.o{fill:#ccc;}.p{fill:#ddd;}.q{fill:#09834b;}.r{fill:#292929;}.s{fill:#75a1de;}.t{fill:#f2e5de;}.u{fill:#96cfe0;}.v{fill:#5d0204;}.w{fill:#740306;}.x{fill:#a86b48;}.y{fill:#7a4e34;}.z{fill:#13b59c;}.aa{fill:#faeeca;}.ab{fill:#94bdf2;}.ac{fill:#9ec8ff;}.ad{fill:#f39892;}.ae{clip-path:url(#a);}.af{fill:#a2dff2;}.ag{fill:#9cd499;}.ah{fill:#e7f3fe;}.ai{fill:#ffb8b3;}.aj{fill:#3e6bab;}.ak{fill:#fae8b6;}</style><clipPath id="a"><path d="M449.86-2814.26a12.056,12.056,0,0,1-12.056-12.056,12.057,12.057,0,0,1,12.056-12.056,12.057,12.057,0,0,1,12.056,12.056,12.056,12.056,0,0,1-12.056,12.056m0-34.813a22.758,22.758,0,0,0-22.758,22.757,22.758,22.758,0,0,0,22.758,22.759,22.758,22.758,0,0,0,22.758-22.759,22.758,22.758,0,0,0-22.758-22.757" transform="translate(-427.102 2849.073)"/></clipPath></defs><g transform="translate(-2786.805 -6417.118)"><path class="a" d="M446.055-2965.321c82.5-30.628,166.355-3.551,223.225,55.427,28.442,29.5,72.517,19.306,117.389,9.114,44.846-10.186,90.49-20.37,122.129,9.061,43.2,40.183,23.41,143.5-35.82,188.244-80.51,60.822-380.441,62.648-430.206,41.777-85.039-35.665-.543-101.711-40.238-165.022-46.831-74.693,7.062-125.065,43.521-138.6" transform="translate(2402.513 9408.792)"/><path class="b" d="M1023.51-526.843c-41.3-2.019-181.786,1.4-224.513,2.734s-92.323-1.76-118.086-6.307-174.68.387-167.922,12.615,66.349,5.471,133.927,10.384,219.561-.614,253.845,0,65.72-1.229,109.9-3.686,36.786-14.57,12.848-15.74" transform="translate(2289.456 7256.354)"/><path class="c" d="M3527-3014.042l-4.2-6.491a32.678,32.678,0,0,1-3.735.215,32.711,32.711,0,0,1-5.435-.455l-4.536,6.261a39.334,39.334,0,0,1-6.413-2.273l.417-7.719a32.611,32.611,0,0,1-7.272-5.589l-.706.23v-47.66l1.939.747a32.628,32.628,0,0,1,7.557-5.2l-.01-7.729a39.425,39.425,0,0,1,6.525-1.928l4.2,6.492a32.946,32.946,0,0,1,3.732-.215,32.545,32.545,0,0,1,5.437.456l4.536-6.261a39.193,39.193,0,0,1,6.413,2.274l-.417,7.717a32.733,32.733,0,0,1,7.272,5.59l7.346-2.4a39.624,39.624,0,0,1,3.857,5.608l-4.87,5.992a32.279,32.279,0,0,1,2.6,8.8l7.345,2.376c.046.781.072,1.568.072,2.362a39.885,39.885,0,0,1-.25,4.445l-7.459,1.986a32.358,32.358,0,0,1-3.066,8.65l4.547,6.243a39.8,39.8,0,0,1-4.15,5.4l-7.206-2.781a32.537,32.537,0,0,1-7.559,5.2l.01,7.728a39.153,39.153,0,0,1-6.523,1.928m-7.935-54.323a15.528,15.528,0,0,0-15.528,15.529,15.528,15.528,0,0,0,15.528,15.528,15.528,15.528,0,0,0,15.529-15.528,15.529,15.529,0,0,0-15.529-15.529" transform="translate(-335.012 9508.75)"/><path class="d" d="M3865.284-2820.322a.8.8,0,0,1-.512-.185.8.8,0,0,1-.1-1.126,26.044,26.044,0,0,0,6-16.618,25.924,25.924,0,0,0-1.411-8.474.8.8,0,0,1,.5-1.016.8.8,0,0,1,1.018.494,27.591,27.591,0,0,1,1.5,9,27.645,27.645,0,0,1-6.37,17.641.8.8,0,0,1-.616.289" transform="translate(-660.047 9294.166)"/><path class="d" d="M3778.873-2977.773a.808.808,0,0,1-.549-.218,25.835,25.835,0,0,0-8.952-5.517.8.8,0,0,1-.48-1.026.8.8,0,0,1,1.026-.478,27.424,27.424,0,0,1,9.5,5.856.8.8,0,0,1,.034,1.13.793.793,0,0,1-.582.253" transform="translate(-575.883 9414.967)"/><path class="d" d="M3638.6-2995.978a.8.8,0,0,1-.776-.6.8.8,0,0,1,.581-.971,27.684,27.684,0,0,1,6.776-.838.8.8,0,0,1,.8.8.8.8,0,0,1-.8.8,26.143,26.143,0,0,0-6.386.789.752.752,0,0,1-.2.026" transform="translate(-460.568 9426.698)"/><path class="c" d="M1678.029-2993.17v-35.015l2.592-.845v35.378c-.864.163-1.731.325-2.592.482m2.592-83.52-2.592-1v-9.368H1445.238v9.994c-2.11-.069-4.234-.1-6.354-.1-1.9,0-3.8.027-5.7.083v-13.6h247.438v14" transform="translate(1479.491 9507.918)"/><path class="e" d="M1680.621-2842.939H1433.183v-135.024c1.906-.056,3.8-.083,5.7-.083,2.12,0,4.243.035,6.354.1V-2851.5h232.792v-42.551c.861-.157,1.728-.318,2.592-.482v51.59" transform="translate(1479.491 9408.794)"/><path class="f" d="M3473.525-2932.888v-49.5l2.592,1v47.66l-2.592.844" transform="translate(-316.004 9412.619)"/><path class="d" d="M1533.636-2924.022h232.792v-136.44H1533.636Z" transform="translate(1391.093 9481.319)"/><path d="M3110.749-2525.949c11.095-10.56,30.055-10.32,29.655,5.76s.928,17.592,5.493,26.028c15.84,29.269-18.88,27.548-33.361,28.508s-13.28-26.32-10.72-41.441,5.686-15.764,8.933-18.855" transform="translate(12.486 9017.319)"/><path class="g" d="M3125.758-1704.556c-3.557,29.868-10.02,51.947-10.74,66.107s-3.6,69.912-3.6,69.912,7.92-.554,8.64-1.754,14.88-32.639,14.161-52.079,14.143-49,14.143-49l-3.584-29-19.019-4.189" transform="translate(2.648 8288.127)"/><path class="h" d="M3184.4-1596.209l-5.562,2.328c-1.512,9.471-3.19,17.986-4.662,25.54,8.851,5.722,13.423,24.788,15.383,36.444,1-13.044,7.152-28.8,10.97-37.519l-16.128-26.793" transform="translate(-52.58 8192.781)"/><path class="g" d="M3299.352-1729.649s11.987,15.292,11.611,32.639c-.571,26.409-3.451,33.948,1.56,61.638,1.957,10.815-4.32,46.193-4.32,46.193s-5.362.419-8.242-1.015c.24-2.6-3.466-44.884-10.682-64.321-3.5-9.413-8.406-35.775-11.047-50.9s-3.12-18.239-2.16-18.239,23.279-6,23.279-6" transform="translate(-141.845 8310.209)"/><path class="i" d="M2841.188-2193.048s.532-7.912-.32-10.356-8.214-4.578-8.214-4.578-.32,11.308.427,12.693,5.12,5.334,5.12,5.334l2.988-3.094" transform="translate(248.021 8731.14)"/><path class="j" d="M2907.536-2131.582c-16.852,18.139-22.352,25.772-23.633,25.772-4-7.061-17.285-21.994-17.285-21.994l-5.666,3.642s13.092,34.2,21.412,34.557,25.231-11.8,25.445-13.19-.274-28.786-.274-28.786" transform="translate(223.058 8663.908)"/><path class="k" d="M3102.672-2091.377c8.245-3.357,17.69-10.378,17.85-11.418.215-1.4-.273-28.786-.273-28.786-3.674,3.955-6.88,7.463-9.664,10.53-3.019,11.242-2.821,23.484-7.912,29.674" transform="translate(10.345 8663.908)"/><path class="j" d="M3199.5-2231.088s16.126,8.083,19.647,22.392-6.9,31.986-8.176,41.42-30.719,11.093-30.719,1c0-9.682-7.376-30.231-6.96-35.467.978-12.281,18.929-27.327,18.929-27.327l7.279-2.014" transform="translate(-51.788 8751.473)"/><path class="i" d="M3256.553-2385.554l6.923,21.35s-7.392,5.7-20.043,19.427c.491-9.133,8.142-19.086,8.142-19.086l-5.237-20.16,10.215-1.53" transform="translate(-113.523 8887.403)"/><path class="l" d="M3281.088-2375.6l-3.229-9.957-10.215,1.53,5.237,20.161s-.512.814-1.266,2.1a24.607,24.607,0,0,0,9.472-13.829" transform="translate(-134.83 8887.402)"/><path class="i" d="M3178.294-2456.311c-1.867,6.794-9.1,10.535-14.237,9.122s-6.237-7.442-4.369-14.235,7.547-11.157,12.685-9.744,7.789,8.064,5.922,14.857" transform="translate(-39.079 8962.978)"/><path class="j" d="M3176.089-1877.193c2.241,14.207-6.084,44.6-6.084,44.6s4.965,1.128,19.845-.312,21.441-16.291,23.68-16.706,3.39,13.821,4.494,14.946,1.274-17.976-1.615-25.487c-5.12-13.311-4.118-18.957-2.205-27.021,3.4-14.341-38.117,9.981-38.117,9.981" transform="translate(-48.908 8452.812)"/><path class="i" d="M2995.864-629.358c1.341,5.445-1.305,9.763-4.846,12.912-2.88,2.56-11.733,3.648-11.307,4.928s10.88,1.685,14.4,1.152,4.48-2.24,8.861-2.239c2.874,0,3.406-2.334,2.126-5.221s-1.728-4.483-.571-7.072-8.663-4.461-8.663-4.461" transform="translate(118.564 7341.956)"/><path class="i" d="M3479.277-658.415c-.215,5.653-.871,9.864.517,12.485,5.355,4.48,9.806,9.57,8.107,9.92-8.107,1.675-11.2-3.184-15.787-4.565-5.629-1.7.533-8.768-1.672-17.84-1.227-5.045,8.5-3.835,8.5-3.835l.336,3.835" transform="translate(-312.61 7371.012)"/><path class="k" d="M3288.83-2090.818a26.706,26.706,0,0,0-1.209-4.635c-5.12-13.311-4.118-18.957-2.205-27.021a6.243,6.243,0,0,0,.194-1.685c.432-1.437.835-2.895,1.189-4.361l-1.738-15.687-12.53-14.88c-9.391,13.76-3.053,30.881-4.462,40.321s-17.143,21.477-17.143,21.477l.512,3.349a8.506,8.506,0,0,0,9.565,7.147c6.485-.9,14.992-2.709,18.778-6.221,3.663-3.4,6.907-.77,9.05,2.2" transform="translate(-120.117 8688.114)"/><path class="i" d="M3194.561-1648.623s-6.945,1.944-7.776,2.378-1.29,2.731-1.29,2.731-3.976,3.453-2.453,4.675,4.244,4.317,7.841,2.877c2.206-.883,3.918-8.994,5.365-9.059s-1.687-3.6-1.687-3.6" transform="translate(-60.075 8238.905)"/><path class="j" d="M3288.989-2174.239c7.434.211,14.175,13.6,16.523,25.217s4.821,28.132,4.821,28.132-12.32,9.723-24.493,12.565c-10.621,2.48-16.042,3.448-16.042,3.448l-2.154-6.062,25.409-14.924s-9.343-17.6-10.273-30.88.559-17.655,6.208-17.495" transform="translate(-134.83 8701.449)"/><path class="m" d="M2716.045-2218.411l-18.532,3.719-2.36-11.768,18.532-3.72,2.36,11.77" transform="translate(368.961 8750.675)"/><path class="i" d="M2837.188-2175.845c.254-4.867-2.157-11.506-3.543-11.5s.426,4.351-.319,7.231c-.405,1.56,3.862,4.266,3.862,4.266" transform="translate(247.564 8712.977)"/><path d="M3177.272-2482.353c.413,13.335,15.986,12.313,20.253,11.49s-5.2,28.13,2.933,29.8c5.968,1.227,4.624-8.109,11.254-7.485,2.933.275,5.88,4.81,5.88,4.81a9.047,9.047,0,0,0-2.68-4.81c-2.24-2.018-8.113-14.391-9.658-23.245s-12-14.58-15.09-14.756-10.667,3.343-10.667,3.343l-2.226.853" transform="translate(-55.302 8976.284)"/><path d="M3335.467-2325.833a3.059,3.059,0,0,1-.642-.069c-2.6-.554-3.863-3.288-3.97-8.6-.093-4.557.66-10.4,1.458-16.6.323-2.5.656-5.088.931-7.593a.387.387,0,0,1,.429-.344.389.389,0,0,1,.345.431c-.275,2.51-.609,5.1-.931,7.606-1.544,11.979-3,23.293,1.9,24.338a2.195,2.195,0,0,0,.456.048c2.814,0,5.349-5.485,6.826-10.829a.39.39,0,0,1,.48-.27.388.388,0,0,1,.272.479c-.976,3.526-3.6,11.4-7.553,11.4" transform="translate(-190.448 8864.071)"/><path d="M3326.409-2322.732a3.079,3.079,0,0,1-2.3-1.024c-5.309-5.613-.059-33.771.167-34.966a.389.389,0,0,1,.456-.311.39.39,0,0,1,.311.455c-.055.29-5.4,28.96-.367,34.285a2.331,2.331,0,0,0,2.12.755c2.757-.365,4.347-4.106,5.752-7.4,1.362-3.2,2.643-6.226,4.925-6.146a.39.39,0,0,1,.376.4.386.386,0,0,1-.4.376c-.019,0-.037,0-.056,0-1.71,0-2.883,2.757-4.125,5.672-1.485,3.493-3.17,7.451-6.368,7.874a3.761,3.761,0,0,1-.483.032" transform="translate(-182.432 8864.069)"/><path class="i" d="M3317.333-2366.549c-1.1,1.415-2.817,1.917-3.842,1.122s-.963-2.585.134-4,2.816-1.917,3.84-1.122.965,2.586-.133,4" transform="translate(-174.532 8874.53)"/><path d="M2136.628-1986.592c3.8,7.6.655,16.359-6.824,19.452-7.526,3.114-15.757,1.345-19.559-6.258s-.979-16.719,6.307-20.362,16.272-.434,20.075,7.168" transform="translate(885.167 8543.947)"/><path d="M2110.217-1905.923c-.839,0-2.493-.3-4.6-2.163a11.729,11.729,0,0,1-3.488-6.608,22.98,22.98,0,0,1,1.28-11.779.389.389,0,0,1,.5-.24.388.388,0,0,1,.24.495,22.232,22.232,0,0,0-1.251,11.378,10.983,10.983,0,0,0,3.24,6.173c2.667,2.366,4.454,1.936,4.473,1.931a.391.391,0,0,1,.477.274.388.388,0,0,1-.269.477,2.3,2.3,0,0,1-.6.064" transform="translate(891.082 8483.645)"/><path class="d" d="M2252.2-1676.463c4.328.97,9.791,12.994,12.466,20.7,2.7,7.77,7.272,17.408,10.267,20.4s22.674,9.938,22.674,9.938-48.623.094-47.628,0,2.221-51.036,2.221-51.036" transform="translate(760.728 8263.404)"/><path class="n" d="M2292.284-1629.287c-2.661-.381-12.264.856-8.176-.856s3.519-3.9,3.519-3.9-5.8,4.848-6.845.608c-.9-3.655-1.248-16.562-4.671-29.5-2.827-6.414-6.528-12.832-9.64-13.53,0,0-.109,4.555-.289,10.943,1.193,14.133,3.221,34.9,3.734,40.134,6.445.01,17.231,0,26.255-.013l6-.286s-7.226-3.221-9.888-3.6" transform="translate(746.455 8263.404)"/><path class="d" d="M2007.643-1698.662s-13.765,7.69-16.973,9.327,8.989,49.644,11.7,51.7,26.6.354,29.314-2.238-2.086-10.547.267-26.476-7.178-29.681-8.4-29.65-9.215-2.664-9.215-2.664h-6.695" transform="translate(989.373 8282.939)"/><path class="n" d="M2002.691-1564.1c2.712,2.058,19.8,2.1,27.077-.16.821-.256,4.549-1.741,4.635-3.138-.877-.165-4.363.255-5.778-.072-4.92-1.13-7.631-7.224-7.631-7.224s-2.709-.976-8.77-3.542-3.565-10.339-3.707-13.762-5.991-14.618-16.972-23.1l-1.006.451c-.784,7.8,9.64,48.646,12.151,50.55" transform="translate(989.055 8209.408)"/><path class="o" d="M2526.393-1503.983H2493.25l-15.1,32.122h36.51l13.664-29.078a2.136,2.136,0,0,0-1.934-3.045" transform="translate(559.92 8111.623)"/><path class="p" d="M2331.938-1472.424h-19.944a2.24,2.24,0,0,1-2.24-2.24,2.24,2.24,0,0,1,2.24-2.24h18.516l12.517-26.94a2.24,2.24,0,0,1,2.976-1.088,2.239,2.239,0,0,1,1.086,2.974l-13.12,28.237a2.238,2.238,0,0,1-2.031,1.3" transform="translate(708.111 8112.642)"/><path class="i" d="M2188.717-1289.677c8.653,1.616,10.779,3.6,15.5,4.362,5.346.862,4.71,2.043.739,2.043s-13.949.155-17.373-.606,1.137-5.8,1.137-5.8" transform="translate(816.746 7923.034)"/><path class="d" d="M1877.828-1619.554c-6.63,21.2-16.031,45.257-14.533,45.257s39.572,1.539,41.069.257,1.069-6.2.856-6.843-21.647-4.445-21.647-4.445,2.823-5.5,3.893-16.25-8.381-22-9.639-17.976" transform="translate(1101.133 8214.06)"/><path class="i" d="M2138.869-1852.182l-5.341,19.519s9.024,14.088,11.506,12.837-1.387-11.452-1.387-12.837,3.869-15.687,3.869-15.687l-8.646-3.832" transform="translate(863.19 8418.038)"/><path class="l" d="M2170.033-1831.668a5.234,5.234,0,0,1-.186-1c0-1.386,3.869-15.687,3.869-15.687l-8.646-3.832-1.768,6.459a33.689,33.689,0,0,0,6.731,14.055" transform="translate(836.989 8418.038)"/><path class="i" d="M2203.628-1918.7c1.018,5.659.347,13.178-4.679,15.088s-11.08-1.746-13.523-8.167-.347-13.178,4.68-15.09,12.306,1.406,13.522,8.168" transform="translate(818.417 8484.229)"/><path class="i" d="M2161.936-1848.606c.7,1.978.093,4-1.367,4.523s-3.214-.664-3.918-2.643-.093-4,1.367-4.523,3.214.664,3.918,2.643" transform="translate(843.099 8417.323)"/><path d="M2176.384-1946.954c-1.712,13.282-17.848,11.57-17.848,11.57s-3.328-4.375-4.826-2.08,2.077-13.466,11.336-13.962c3.043-.163,11.338,4.472,11.338,4.472" transform="translate(845.719 8505.376)"/><path d="M2080.208-2021.061a8.483,8.483,0,0,1-8.741,8.2,8.483,8.483,0,0,1-8.739-8.2,8.484,8.484,0,0,1,8.739-8.2,8.484,8.484,0,0,1,8.741,8.2" transform="translate(925.493 8573.867)"/><path class="q" d="M1990.488-870.563h2l12.906-59.795H2001l-10.507,59.795" transform="translate(989.064 7606.834)"/><path class="q" d="M2383.492-886.062h-2l-15.02-61.908h4.4l12.621,61.908" transform="translate(658.198 7622.333)"/><path class="q" d="M2021.57-1193.518c-8.007,0-13.079-1.437-16.316-4.59-4.011-3.909-4.842-9.963-4.854-17.852-.01-6.208-.157-10.251-.493-13.52a2.24,2.24,0,0,1,2-2.458,2.24,2.24,0,0,1,2.458,2c.352,3.427.507,7.605.517,13.972.013,8,1.027,12.24,3.5,14.65,2.539,2.474,7.128,3.493,14.877,3.3a88.053,88.053,0,0,0,16.773-2.073c5.445-1.106,9.378-1.906,14.042.323a2.241,2.241,0,0,1,1.056,2.987,2.24,2.24,0,0,1-2.988,1.054c-3.31-1.581-6.12-1.01-11.218.026a91.976,91.976,0,0,1-17.555,2.161q-.922.022-1.8.022" transform="translate(980.786 7872.234)"/><path class="q" d="M2028.93-1234.157l12.256.51-3.263,33.834s-9.136-5.831-8.994-12.106,0-22.239,0-22.239" transform="translate(955.237 7874.177)"/><path class="i" d="M2520.536-1212.639c10.362-1.573,13.884-1.077,20.226,10.727s14.783,33.052,19.638,35.8c7.31,4.133,9.733,14.266,12.734,13.812s4.935.87,1.667,3.586-8.541,5.026-10.344,4.544-3.2-8.275-7.914-10.8-3.295-4.61-2.986-6.848-13.75-12.543-24.351-25.359c-6.475-7.832-9.811-13-10.306-17.685a12.286,12.286,0,0,1,1.635-7.768" transform="translate(524.128 7855.811)"/><path class="l" d="M2546.225-1169.839c-2.406-6.106-4.82-16.183-7.089-25.421-3.228-13.14-6.61-16.258-8.752-17.66-2.59-.65-5.659-.352-9.846.283a12.286,12.286,0,0,0-1.635,7.768c.495,4.685,3.831,9.853,10.306,17.685a186.22,186.22,0,0,0,17.018,17.344" transform="translate(524.128 7855.808)"/><path class="q" d="M2485.716-1202.255s-2.757,20.8-5.325,22.919c-1.835,1.512-3.136,1.613-4.421-4.592s2-29.362,2-29.362l7.749,11.036" transform="translate(562.103 7855.814)"/><path class="i" d="M2353.938-1163.928l-25.517,4.288,14.406-20.658,10.963-2.232,6.575,1.512-6.427,17.09" transform="translate(691.684 7828.745)"/><path d="M2804.42-784.465c-.827,3.334-.728,5.8.71,7.034S2812-767.02,2812-767.02l1.693-.258-3.918-8.4-5.352-8.79" transform="translate(273.266 7478.449)"/><path d="M2815.922-767.95c1.8.482,7.078-1.83,10.344-4.544s1.334-4.042-1.667-3.586a1.3,1.3,0,0,1-.5-.026c-1.5,3.349-6.431,5.861-8.021,2.323-1.578-3.506-8.333-10.483-11.054-11.976a.637.637,0,0,1,0,.155c-.309,2.238-1.725,4.317,2.986,6.848s6.111,10.323,7.914,10.8" transform="translate(272.664 7479.587)"/><path class="l" d="M2067.089-1207.462c-9.052,16.247-2.869,26.572,8.135,27.625s28.374-.957,38.5-9.371,18.437-17.311,17.277-18.637-63.91.384-63.91.384" transform="translate(925.493 7851.467)"/><path class="i" d="M2512.142-1172.6c1.853-5.562,3.99-9.829,8.128-9.907,4.351-.08,7.028,2.182,7.213,9.3.221,8.475.52,36.543.128,49.023-.3,9.448,2.458,12.472,2.224,22.321-.174,7.418,7.733,3.67,4.678,7.518-2.1,2.645-8.354,1.779-12.194,1.291-3.422-.435,1.771-10.691-2.965-13.434-4.064-2.352-4.144-6.173-1.578-9.064s.285-11.448-1.426-17.439-4.366-12.469-6.109-26.631c-.5-4.038.766-9.581,1.9-12.978" transform="translate(531.78 7828.725)"/><path d="M2575.141-607.81a17.9,17.9,0,0,1-4.333.888c-2.853.094-3.709-3.043-3.9-7.3-.166-3.722-2.869-9.583-5.642-11.959-.051.067-.1.134-.158.2-2.566,2.891-2.487,6.712,1.577,9.064,4.736,2.742-.458,13,2.965,13.434,3.84.488,10.093,1.354,12.194-1.291,1.986-2.5-.479-2.7-2.706-3.029" transform="translate(488.446 7339.163)"/><path d="M2551.3-633.385s-4.16,4.344-3.78,6.151a68.935,68.935,0,0,1,1.877,9.888c.214,3.517.4,7.555.4,7.555s1.5,0,1.616-.426.952-14.3.952-14.3l-1.07-8.871" transform="translate(498.9 7345.499)"/><path d="M2047.939-1213.291s-5.37,22.789,1.415,29.106,34.958.635,41.593.256c4.493-.256,8.842,5.227,8.842,5.227s-3.138-12.715-1-22.983,5.592-10.958,5.592-10.958l-4.594-.648h-51.849" transform="translate(940.283 7855.814)"/><path class="d" d="M2044.055-1262.943c2.3,4.872-2.472,13.287-.8,15.711s11.239.339,17.508-4.705,18.133-6.156,18.133-6.156l-34.839-4.85" transform="translate(942.951 7899.509)"/><path class="q" d="M2083.505-964.286c18.967.712,38.932.376,38.932-2.451s-.856-4.823-15.544-3.682-24.671,2.711-29.092,1.712,5.7,4.421,5.7,4.421" transform="translate(913.212 7642.375)"/><path class="q" d="M1844.182-1231.14h-267.24a2.066,2.066,0,0,1-2.066-2.066v-1.032a2.066,2.066,0,0,1,2.066-2.066h267.24a2.066,2.066,0,0,1,2.066,2.066v1.032a2.066,2.066,0,0,1-2.066,2.066" transform="translate(1354.802 7876.065)"/><path class="i" d="M3979.25-1882.374c1.837,6.479-2.651,13.154-7.6,14.557s-8.471-3-10.309-9.479.681-12.866,5.624-14.269,10.442,2.712,12.28,9.191" transform="translate(-744.757 8452.935)"/><path class="i" d="M3841.982-766.9s12.67,19.68,14.381,20.535,5.991,1.07,4.386,4.279-2.246,15.829-3.744,16.471-14.332,2.139-12.407,0,3.11-1.069,4.082-4.92,2.336-11.123.519-12.62-12.941-14.975-12.941-14.975l5.725-8.77" transform="translate(-635.207 7462.996)"/><path class="i" d="M3163.493-696.478s-15.4,25.384-18.255,27.666-12.264,5.706-4.563,6.275,11.41-2.566,16.258-3.994,10.838-2.282,8.557-5.989-1.334-11.8,3.584-16.936-5.581-7.023-5.581-7.023" transform="translate(-20.489 7401.021)"/><path class="r" d="M3383.184-1187.137s-38.128-1-53.244,11.408c-8.842,13.407-30.233,52.959-31.9,57.318,1.141,1.141,7.559,3.2,10.412,2.914,8.414-10.032,19.535-18.706,23.958-26.575,5.45-9.7,7.13-14.546,15.972-15.4s28.807-3.707,34.8-3.707,0-25.956,0-25.956" transform="translate(-161.582 7832.815)"/><path class="q" d="M4164.84-851.55h-2l-14.332-59.795h4.4l11.933,59.795" transform="translate(-909.989 7590.102)"/><path class="q" d="M3785.684-867.049h2l16.445-61.908h-4.4l-14.048,61.908" transform="translate(-590.703 7605.602)"/><path d="M3638.8-1208.757l-22.167,3.826s-29.456.271-42.921,2.779c-12.251,2.281-14.056,16.2,0,35.367,7.984,10.888,14.734,19.573,28.54,29.365,3.512-2.578,4.854-3.553,5.825-9.757-1-1.37-3.585-9.944-4.389-11.623-7.635-15.962-17.828-21.767-17.968-23.336,1.71-2.781,45.329,14.495,54,4.333,8.28-9.7-.922-30.954-.922-30.954" transform="translate(-395.473 7851.825)"/><path class="j" d="M3988.791-1628.8a23.192,23.192,0,0,0-17.346,4.315c-4.86,4.954-10.357,13.122-10.02,26.6.427,17.112-2.648,18.212.56,22.917,13.383,5.526,36.27,29.269,30.881,3.814-3.9-18.431,8.559-32.169-1.495-52.614-.819-1.664-1.841-3.278-2.581-5.029" transform="translate(-744.547 8221.682)"/><path class="k" d="M3961.42-1560.094c-.259,8.922-1.521,11.549-.557,14.346,5.456.557,15.436,2.741,17.93,6.232,2.851,3.992,5.7,4.563,4.373,1.616s-4.849-7.131.571-21.487,7.986-24.053,2.661-34.036l-24.978,33.329" transform="translate(-744.546 8190.33)"/><path class="i" d="M4069-1759.47a69.622,69.622,0,0,1-4.479-18.072l-9.411,2.781s5.347,11.978.214,16.256a48.723,48.723,0,0,0-3.671,3.35A23.193,23.193,0,0,1,4069-1759.47" transform="translate(-824.758 8352.354)"/><path class="l" d="M4090.257-1771.592c-.557-.5-1.255-1.115-1.987-1.763l-7.677,2.269-.016.041a31.337,31.337,0,0,1,2.4,9.376,27.077,27.077,0,0,0,7.656-7.605c-.155-.877-.279-1.659-.374-2.318" transform="translate(-850.208 8348.67)"/><path class="i" d="M3721.756-1606.626c-9.693,3.391-8.618,13.6-17.54,28.665-4.618,7.794-8.906,7.677-8.906,7.677a206.35,206.35,0,0,1-23.925-1.514c-8.2-1-8.722,1.438-3.018,3.479,11.5,4.112,23.442,8.539,33.068,7.47s26.089-25.629,26.938-32.023c1.175-8.842-1.736-15.461-6.617-13.754" transform="translate(-484.129 8202.185)"/><path class="q" d="M3851.411-1362.644q-.9,0-1.849-.024a91.95,91.95,0,0,1-17.556-2.162c-5.1-1.035-7.907-1.606-11.218-.024a2.239,2.239,0,0,1-2.986-1.056,2.239,2.239,0,0,1,1.054-2.987c4.664-2.229,8.6-1.429,14.042-.323a88.067,88.067,0,0,0,16.773,2.074c8.427.208,13.583-1.056,16.216-3.976,2.352-2.608,3.045-6.955,2.179-13.683-.293-2.279-.586-4.173-.844-5.843-.726-4.69-1.2-7.789-.613-12.565.551-4.453,2.029-10.392,5.449-21.917a2.241,2.241,0,0,1,2.786-1.509,2.24,2.24,0,0,1,1.51,2.784c-6.4,21.557-6.077,23.663-4.706,32.522.263,1.7.56,3.622.859,5.957,1.045,8.12,0,13.6-3.3,17.255-3.394,3.763-8.927,5.479-17.8,5.479" transform="translate(-618.774 8043.643)"/><path class="k" d="M3164.537-518.185c-10.219,5-15.718,7.863-19,7.589-.773-.064-1.415-.144-1.952-.227-3.645,2.154-9.463,4.7-2.917,5.184,7.7.571,11.409-2.566,16.258-3.994s10.839-2.282,8.557-5.989a7.83,7.83,0,0,1-.951-2.563" transform="translate(-20.487 7244.124)"/><path class="k" d="M3917.205-592.305c-.251,8.091-1.364,16.109-6.312,17.624a8.315,8.315,0,0,1-3.565.318c-.778.962-1.728.973-3,2.389-1.925,2.139,10.911.642,12.406,0s2.14-13.263,3.744-16.471c1.319-2.635-1.334-3.251-3.27-3.861" transform="translate(-694.934 7309.349)"/><path class="s" d="M3334.34-1472.424h-32.466a2.238,2.238,0,0,1-2.031-1.3l-13.12-28.237a2.239,2.239,0,0,1,1.087-2.974,2.239,2.239,0,0,1,2.976,1.088l12.517,26.94h31.037a2.239,2.239,0,0,1,2.24,2.24,2.239,2.239,0,0,1-2.24,2.24" transform="translate(-151.435 8112.642)"/><path class="i" d="M3529.964-1337.674c-6.56-.094-13.066-4-16.3-3.434s-13.786,7.89-12.455,8.176,9.7-4.051,9.983-4.119,2.091,3.005,6.56,4.131.032-3.349,13.884.835c9.007,2.72-1.674-5.59-1.674-5.59" transform="translate(-340.267 7968.343)"/><path class="t" d="M4025.317-1691.662l.965,7.767s-8.49.5-12.714,2.882-10.458,9.243-10.458,9.243l5.093-8.768.733-5.61,16.381-5.514" transform="translate(-782.038 8276.78)"/><path class="t" d="M3795.441-1613.578c-6.306-1.182-9.223,4.467-13.311,13.69s-11.067,20.423-12.455,21.868-23.387,0-23.387,0-.666,6.37,0,7.13,4.467.666,4.467.666,1.522,1.214,2.948,2.176,13.5,2.768,19.11,2.483,10.743-.761,11.5-1.617,16.068-24.433,17.019-32.9-2.676-12.9-5.894-13.5" transform="translate(-555.775 8208.202)"/><path d="M3928.6-1967.21c-11.925.572-10.055,18.511-10.055,18.511s3.1.957,9.586-.114c-.5-1.925-.285-6.845-.285-6.845a44.821,44.821,0,0,0,1.71,6.418c1.373.629,2.923.07,5.562-.567a11.738,11.738,0,0,0,7.8,8.933c2.9.911,5.962,2,9.384.285s1.541-19.205-.276-22.722c-2.729-5.282-7.263-10.007-15.106-7.512a58.422,58.422,0,0,0-8.325,3.613" transform="translate(-707.523 8523.044)"/><path d="M4175.923-1767.552l4.875,7.122s-5.4,13.5,10.31,19.616c12.309,4.79,10.858,13.231,5.3,21.719s3.328,15.9,3.328,15.9,1.355-9.4,13.313-11.178c16.306-2.419,20.922-24.311,8.745-35.257-10.079-9.058-13.145-1.557-19.967-9.685s-19.7-2.639-19.7-2.639l-4.72-6.883-1.483,1.283" transform="translate(-934.112 8344.692)"/><path d="M4270.022-1699.556a.4.4,0,0,1-.187-.048.39.39,0,0,1-.153-.53c4.109-7.51.755-16.61-.932-19.074-.177-.261-.347-.525-.526-.8-1.657-2.589-3.72-5.81-14.717-7.789-2.635-.474-4.771-2.043-7.034-3.7-4.691-3.443-10.01-7.346-21.562-2.031a.388.388,0,0,1-.517-.19.389.389,0,0,1,.192-.517c11.97-5.509,17.483-1.461,22.348,2.111,2.187,1.6,4.254,3.122,6.71,3.565,11.332,2.04,13.5,5.419,15.237,8.135.175.274.341.533.512.782a21.138,21.138,0,0,1,2.786,8.088,18.979,18.979,0,0,1-1.814,11.8.39.39,0,0,1-.342.2" transform="translate(-976.736 8316.627)"/><path d="M4061.111-1821.444a17.064,17.064,0,0,1-2.525-.2c-4.157-.622-9.733-2.986-10.171-16.268a.389.389,0,0,1,.376-.4.385.385,0,0,1,.4.378c.181,5.5,1.273,9.567,3.245,12.095a9.135,9.135,0,0,0,6.263,3.427c3.88.582,6.454-.138,7.649-2.139a.391.391,0,0,1,.535-.134.389.389,0,0,1,.134.535c-1.079,1.8-3.061,2.714-5.909,2.714" transform="translate(-821.905 8405.837)"/><path class="u" d="M835.978-1619.169c-13.841,7.915-33.092,40.813-29.028,46.183s25.883-8.749,25.883-8.749l3.146-37.434" transform="translate(2031.061 8212.986)"/><path d="M1079.7-1958.157c-5.286-.144-3.324-4.072-9.4-2.5-3.2.826-.836,2.139-4.987,1.712s-6.194-.856-6.717,1.853-.776,3.566-2.773,3.994-2.9,3.994,0,6.418,1.489,3.422.848,5.419,1.546,2.139,2.734,3.992-1.094,2.2.618,3.813a6.066,6.066,0,0,0,4.111,1.464l7.2-13.813,8.364-12.348" transform="translate(1813.202 8513.822)"/><path class="k" d="M2100.925-598.241s7.7.214,13.69-2.139,10.053-5.989,8.984-1.712-5.989,11.618-10.267,12.333-5.776,5.422-8.128,5.422-5.776-5.422-11.765-8.131c-5.459-2.469,7.486-5.773,7.486-5.773" transform="translate(899.651 7319.704)"/><path class="k" d="M1589.361-598.96a29.644,29.644,0,0,0,8.875,7.573c5.821,3.208,12.538,4.752,8.373,6.2s-10.253,2.579-16.191.854c-4.166-1.21-9.05-1.462-10.339-3.43s1.518-6.911.35-14.3c-.936-5.919,8.931,3.1,8.931,3.1" transform="translate(1350.529 7319.702)"/><path class="v" d="M1277.352-1159.7s44.607,16.7,48.2,21.373,50.483,47.2,50.483,50.34-7.986,8.843-7.986,8.843-40.215-24.672-50.2-37.222-34.348-18.6-47.3-19.762,6.8-23.573,6.8-23.573" transform="translate(1626.479 7808.658)"/><path class="w" d="M1105.911-1163.422s30.519-1.141,37.079,0,20.949,1.128,11.538,27.69c-7.378,20.82-9.812,47.179-9.812,47.179l-14.669,3.6s.582-47.4,7.581-60.017a235.074,235.074,0,0,0-27.418,6.187c-24.053,6.879-37.241,3.434-37.241,3.434l-3.581-12.551,36.523-15.525" transform="translate(1799.63 7812.375)"/><path class="x" d="M1106.689-1816.316l-7.457,22.032,9.421,6.2,5.339-19.037-7.3-9.2" transform="translate(1773.368 8386.475)"/><path class="y" d="M1144.175-1791.085l4.5-16.032-7.3-9.2-2.728,8.059a45.878,45.878,0,0,0,5.534,17.171" transform="translate(1738.687 8386.475)"/><path class="x" d="M1180.393-1867.745c.242,6.7-3.05,12.5-8.281,13.016s-10.006-4.475-10.664-11.149,3.05-12.5,8.281-13.016,10.283.574,10.664,11.149" transform="translate(1718.684 8441.634)"/><path class="j" d="M976.791-1638.062c-22.889,15.458-8.653,40.438-3.627,58.692,4.281,15.547,4.141,24.944,4.783,24.944s16.384-2.354,25.368-10.482a137.6,137.6,0,0,0,15.058-16s-11.511-2.05-15.272-16.94c-1.91-7.559-1.041-11.663-5.395-23.642s-20.916-16.572-20.916-16.572" transform="translate(1892.227 8229.612)"/><path class="j" d="M1069.388-1682.051l2.451-6s7.773,5.135,10.874,7.559a17.5,17.5,0,0,0,5.015,2.995s1.121,8.6.393,7.818c-9.174-9.832-18.734-12.373-18.734-12.373" transform="translate(1799.63 8273.6)"/><path class="q" d="M984.853-851.55h2l14.332-59.795h-4.4L984.853-851.55" transform="translate(1874.02 7590.102)"/><path class="q" d="M1348.5-867.049h-2l-16.445-61.908h4.4l14.047,61.908" transform="translate(1570.246 7605.602)"/><path class="q" d="M972.48-1301.578c-8.006,0-13.078-1.437-16.315-4.59-4.012-3.909-4.843-9.963-4.854-17.851-.025-16.584-.943-20.013-5.611-30.14a2.241,2.241,0,0,1,1.1-2.973,2.24,2.24,0,0,1,2.972,1.1c4.935,10.7,6,14.639,6.023,32.009.012,7.994,1.026,12.238,3.5,14.648,2.538,2.474,7.126,3.493,14.877,3.3a88.064,88.064,0,0,0,16.773-2.074c5.443-1.106,9.378-1.906,14.042.323a2.239,2.239,0,0,1,1.054,2.987,2.239,2.239,0,0,1-2.986,1.056c-3.31-1.583-6.12-1.011-11.218.024a91.947,91.947,0,0,1-17.555,2.162q-.923.024-1.8.022" transform="translate(1908.657 7982.576)"/><path class="z" d="M1740.037-1474.582h-32.468a2.239,2.239,0,0,1-2.24-2.24,2.241,2.241,0,0,1,2.24-2.24h31.037l12.519-26.94a2.24,2.24,0,0,1,2.975-1.088,2.239,2.239,0,0,1,1.088,2.976l-13.12,28.236a2.238,2.238,0,0,1-2.03,1.3" transform="translate(1240.004 8114.541)"/><path class="k" d="M1076.451-1608.493s5.7,17.4,12.764,24.6,21.266,9.622,25.714,9.339c-3.546-1.426-10.3-5.483-13.015-16.233-1.91-7.558-1.041-11.662-5.395-23.642-3.232-8.891-13.189-13.714-18.107-15.608,6.138,4.41,13.813,11.669,16.171,17.194,2.618,6.133-18.132,4.349-18.132,4.349" transform="translate(1793.415 8222.549)"/><path class="x" d="M1705.067-1353.289s9.839-4.491,10.909-4.064,11.978,7.016,11.978,8.107-9.626-4.067-9.626-4.067,1.07,2.851.429,4.219-8.042,1.366-14.717.939,1.027-5.135,1.027-5.135" transform="translate(1243.533 7982.614)"/><path class="j" d="M1067.182-1570.039c-9.07,18.591,22.044,37.436,40.5,39.111s40.39-4.365,40.39-4.365l-2.472-6.036s-36.981-4.825-37.917-5.5-37.18-30.017-40.5-23.208" transform="translate(1802.998 8170.653)"/><path class="x" d="M1132.069-1833.46c.841,2.211.224,4.5-1.377,5.106s-3.581-.69-4.421-2.9-.224-4.5,1.377-5.106,3.581.69,4.422,2.9" transform="translate(1749.904 8404.246)"/><path d="M1169.46-1944.666c2.506-1.046,5.328-2.167,4.454,2.091-.379,1.854,0,1.331.666,3.043s-1.677,3.054-2.437,4,1.107,1.984-.414,3.125-3.527-.422-4.944,0c-4.231,1.262-3.708-2.066-6.085-2.757s-3.542-.586-3.993.936,1.664,6.527-.143,6.051-2.213,3.565-2.7,5.848-1.725-1.576-1.645-4.186c.123-4-.871-5.685-2.346-6.805s-2.1-11.3,5.028-11.685,7.176-1.069,10.218-1.712,3.2,2.522,4.339,2.045" transform="translate(1729.63 8501.298)"/><path class="m" d="M2282.587-2931.208a26.722,26.722,0,0,0-26.375-26.72,26.8,26.8,0,0,0-27.069,26.287,26.63,26.63,0,0,0,7.071,18.544,12.121,12.121,0,0,1,3.21,8.218v11.979a14.132,14.132,0,0,0,14.092,14.09h4.7a14.132,14.132,0,0,0,14.092-14.09v-11.978a12.254,12.254,0,0,1,3.259-8.274,26.623,26.623,0,0,0,7.024-18.056" transform="translate(779.052 9391.093)"/><path class="aa" d="M2285.261-2843.817h-4.042a12.157,12.157,0,0,1-12.122-12.122v-10.305a10.426,10.426,0,0,0-2.764-7.071,22.915,22.915,0,0,1-6.081-15.954,23.057,23.057,0,0,1,22.991-22.616c.1,0,.2,0,.3,0a22.988,22.988,0,0,1,22.688,22.988,22.909,22.909,0,0,1-6.041,15.535,10.536,10.536,0,0,0-2.8,7.117v10.3a12.157,12.157,0,0,1-12.122,12.122" transform="translate(751.674 9350.573)"/><path class="ab" d="M2343.753-2652.707h-8.8a.8.8,0,0,1-.8-.726c-.016-.171-1.659-17.159-9.255-21.917a.8.8,0,0,1-.254-1.1.8.8,0,0,1,1.1-.252c7.411,4.64,9.517,18.955,9.922,22.4h7.235a26.184,26.184,0,0,1,.72-6.414,35.25,35.25,0,0,1,8.607-15.849.8.8,0,0,1,1.131-.048.8.8,0,0,1,.048,1.132c-9.989,10.874-8.877,21.781-8.866,21.89a.8.8,0,0,1-.2.622.791.791,0,0,1-.6.267" transform="translate(695.112 9143.724)"/><path class="ab" d="M2320.439-2743.446a2.611,2.611,0,0,0-1.347.314c-.785.464-1.192,1.582-1.208,3.322-.016,1.845.391,3.03,1.208,3.526,1.975,1.2,6.586-1.027,11.01-3.362C2326.525-2741.553,2322.771-2743.446,2320.439-2743.446Zm13.061,3.8c4.392,2.336,8.989,4.572,11.018,3.375.85-.5,1.291-1.7,1.315-3.562.024-1.76-.357-2.891-1.131-3.363C2342.74-2744.385,2337.977-2742.016,2333.5-2739.641Zm9.588,5.3c-2.971,0-7.022-2.11-11.289-4.4-5.51,2.935-10.656,5.567-13.536,3.821-1.354-.821-2-2.427-1.979-4.91.021-2.339.691-3.915,1.994-4.685,2.885-1.709,8.042,1.018,13.525,3.96,5.591-2.982,10.856-5.758,13.731-4.008,1.291.787,1.93,2.384,1.9,4.751-.031,2.461-.74,4.115-2.1,4.92a4.336,4.336,0,0,1-2.243.55" transform="translate(702.366 9203.805)"/><path class="ab" d="M2413.821-2318.554h-5.12a3.288,3.288,0,0,1-3.28-3.28v-.48a3.29,3.29,0,0,1,3.28-3.28h5.12a3.291,3.291,0,0,1,3.28,3.28v.48a3.29,3.29,0,0,1-3.28,3.28" transform="translate(623.925 8834.638)"/><path class="ab" d="M2308.368-2487.82v8.473a14.8,14.8,0,0,0,14.757,14.758h4.918a14.8,14.8,0,0,0,14.757-14.758v-8.473h-34.433" transform="translate(709.331 8977.396)"/><path class="ac" d="M2332.822-2495.315h-33.708a1.925,1.925,0,0,1-1.92-1.92v-.213a1.925,1.925,0,0,1,1.92-1.92h33.708a1.926,1.926,0,0,1,1.92,1.92v.213a1.926,1.926,0,0,1-1.92,1.92" transform="translate(719.164 8987.558)"/><path class="ac" d="M2333.774-2469.878l-33.452,4.133a1.925,1.925,0,0,1-2.141-1.671l-.027-.211a1.926,1.926,0,0,1,1.67-2.141l33.453-4.133a1.926,1.926,0,0,1,2.141,1.67l.025.212a1.926,1.926,0,0,1-1.67,2.141" transform="translate(718.332 8965.16)"/><path class="ac" d="M2333.774-2421.091l-33.452,4.133a1.925,1.925,0,0,1-2.141-1.67l-.027-.211a1.926,1.926,0,0,1,1.67-2.141l33.453-4.133a1.926,1.926,0,0,1,2.141,1.67l.025.211a1.926,1.926,0,0,1-1.67,2.141" transform="translate(718.332 8922.228)"/><path class="ac" d="M2358.589-2368.869l-27.861,3.442a1.767,1.767,0,0,1-1.965-1.533l-.066-.525a1.767,1.767,0,0,1,1.533-1.965l27.863-3.442a1.769,1.769,0,0,1,1.965,1.533l.064.525a1.768,1.768,0,0,1-1.533,1.965" transform="translate(691.453 8876.271)"/><path class="ac" d="M4456.386-2407.664h17.959a18.044,18.044,0,0,1-17.959,17.959,18.043,18.043,0,0,1-17.957-17.959,18.043,18.043,0,0,1,17.957-17.957v17.957" transform="translate(-1165.117 8922.662)"/><path class="ad" d="M4631.094-2428.622a17.959,17.959,0,0,0-17.959-17.959v17.959h17.959" transform="translate(-1318.858 8941.105)"/><path class="ad" d="M4463.482-2296.928a17.958,17.958,0,0,0,17.958,17.959,18.045,18.045,0,0,1-17.958-17.959" transform="translate(-1187.164 8809.412)"/><path class="ad" d="M4481.441-2446.581a17.958,17.958,0,0,0-17.958,17.959,18.045,18.045,0,0,1,17.958-17.959" transform="translate(-1187.165 8941.106)"/><path class="ad" d="M4613.135-2278.969a17.959,17.959,0,0,0,17.959-17.959,18.046,18.046,0,0,1-17.959,17.959" transform="translate(-1318.858 8809.412)"/><path class="ac" d="M1663.184-2363.618h-3.922v-11.349h3.922v11.349" transform="translate(1280.542 8878.086)"/><path class="ac" d="M2082.1-2336.538h-3.923v-7.656h3.923v7.656" transform="translate(911.894 8851.008)"/><path class="ac" d="M1801.692-2475.108h-3.923v-26.552h3.923v26.552" transform="translate(1158.657 8989.576)"/><path class="ac" d="M1870.957-2367.913h-3.922v-11.935h3.922v11.935" transform="translate(1097.702 8882.383)"/><path class="ac" d="M1940.21-2392.681h-3.922v-15.312h3.922v15.313" transform="translate(1036.76 8907.15)"/><path class="ac" d="M1732.437-2418.565h-3.922v-18.842h3.922v18.842" transform="translate(1219.599 8933.033)"/><path class="ac" d="M2009.7-2450.574h-3.922v-23.207h3.922v23.207" transform="translate(975.606 8965.043)"/><g transform="translate(2791.942 6446.225)"><g class="ae"><path class="af" d="M610.035-2646.854l-20.569-12.58-3.721,23.823a24.138,24.138,0,0,0,24.29-11.243" transform="translate(-566.708 2682.19)"/><path class="ag" d="M637.34-2730.435c.055-.091.128-.216.125-.211A24.111,24.111,0,0,0,638-2754.38c-7.279,3.813-2.944,1.5-21.25,11.394,20.6,12.6,17.4,10.656,20.591,12.551" transform="translate(-593.991 2765.743)"/><path class="ac" d="M428.33-2844.376l22.611,8.332,21.211-11.469c-9.922-18.349-36.628-16.148-43.822,3.137" transform="translate(-428.182 2858.802)"/><path class="ad" d="M436.1-2696.706l3.721-23.823-22.611-8.331a24.161,24.161,0,0,0,18.89,32.154" transform="translate(-417.066 2743.286)"/><path class="d" d="M412.8-2779.687a2.307,2.307,0,0,1,1.143.3,23.058,23.058,0,0,1,.821-3.208l12.277,4.523v-.011a2.18,2.18,0,0,1,.534-1.5l-1.229-.453-11.022-4.062a23.645,23.645,0,0,1,3.551-5.971,2.387,2.387,0,0,1-1.226-1.029,25.233,25.233,0,0,0-3.826,6.448l-.013,0-.278.747-.281.752.013,0a24.657,24.657,0,0,0-.9,3.51,2.219,2.219,0,0,1,.437-.045" transform="translate(-414.129 2798.057)"/><path class="ah" d="M454.368-2830.457l-.152-.09c-.84-.5-1.205-.714-2.88-1.736l-15.671-9.583,13.009-7.034c1.91-1.029,2.693-1.438,4.634-2.453l1.662-.869A23.4,23.4,0,0,1,454.368-2830.457Zm-23.112,11.691,3.41-21.834,8.875,5.427c3.578,2.189,5.625,3.442,6.914,4.227l3.064,1.874A23.217,23.217,0,0,1,431.256-2818.765Zm25.087-34.281.013-.008-.381-.7-.024-.041-.311-.579-.012.007a24.62,24.62,0,0,0-9.938-9.64,24.9,24.9,0,0,0-13.254-2.717A24.94,24.94,0,0,0,418.061-2861a2.469,2.469,0,0,1,1.017,1.238,23.364,23.364,0,0,1,13.469-5.376,22.949,22.949,0,0,1,21.629,11.44l-6.264,3.388c-1.293.7-3.1,1.673-6.128,3.312l-7.5,4.059-.193.106-.63-.385-.034.219-4.412-1.626a2.205,2.205,0,0,1-.59,1.488l4.75,1.751-3.494,22.368a23.344,23.344,0,0,1-15.753-11.228,23.124,23.124,0,0,1-3.175-11.4,2.312,2.312,0,0,1-.778.142,2.313,2.313,0,0,1-.822-.15,24.714,24.714,0,0,0,3.393,12.21,24.928,24.928,0,0,0,16.887,12l0,.014.788.125.792.125,0-.014a24.709,24.709,0,0,0,3.072.192,24.754,24.754,0,0,0,10.474-2.33,24.877,24.877,0,0,0,10.352-8.954l.016.01.157-.256.255-.419c.039-.064.086-.144.113-.189l.017-.027.012-.023.254-.414-.012-.008a25.005,25.005,0,0,0,.624-23.444" transform="translate(-411.303 2864.665)"/></g></g><path class="ac" d="M1219.9-2851.18h-66.332a1.307,1.307,0,0,1-1.307-1.307v-28.545a1.307,1.307,0,0,1,1.307-1.307H1219.9a1.308,1.308,0,0,1,1.307,1.307v28.545a1.308,1.308,0,0,1-1.307,1.307" transform="translate(1726.703 9324.572)"/><path class="d" d="M1232.089-2792.6h-63.064a1.057,1.057,0,0,1-1.056-1.056v-19.4a1.056,1.056,0,0,1,1.056-1.056h63.064a1.056,1.056,0,0,1,1.056,1.056v19.4a1.057,1.057,0,0,1-1.056,1.056" transform="translate(1712.879 9264.534)"/><path class="d" d="M1178.061-2860.8h-1.531a.586.586,0,0,1-.585-.586v-1.26a.586.586,0,0,1,.585-.586h1.531a.586.586,0,0,1,.585.586v1.26a.586.586,0,0,1-.585.586" transform="translate(1705.86 9307.759)"/><path class="d" d="M1218.984-2860.8h-1.53a.586.586,0,0,1-.585-.586v-1.26a.586.586,0,0,1,.585-.586h1.53a.586.586,0,0,1,.585.586v1.26a.586.586,0,0,1-.585.586" transform="translate(1669.847 9307.759)"/><path class="d" d="M1259.908-2860.8h-1.531a.586.586,0,0,1-.585-.586v-1.26a.586.586,0,0,1,.585-.586h1.531a.586.586,0,0,1,.585.586v1.26a.586.586,0,0,1-.585.586" transform="translate(1633.834 9307.759)"/><path class="ac" d="M1428.621-2789.958h-34.474a1.034,1.034,0,0,1-1.03-1.032,1.034,1.034,0,0,1,1.03-1.031h34.474a1.034,1.034,0,0,1,1.032,1.031,1.034,1.034,0,0,1-1.032,1.032" transform="translate(1514.75 9245.093)"/><path class="ac" d="M1212.543-2657.371h-34.475a1.034,1.034,0,0,1-1.031-1.031,1.035,1.035,0,0,1,1.031-1.032h34.475a1.034,1.034,0,0,1,1.03,1.032,1.034,1.034,0,0,1-1.03,1.031" transform="translate(1704.899 9128.416)"/><path class="ac" d="M1497.09-2657.371h-3.568a.353.353,0,0,1-.352-.352v-1.357a.354.354,0,0,1,.352-.354h3.568a.354.354,0,0,1,.352.354v1.357a.353.353,0,0,1-.352.352" transform="translate(1426.703 9128.416)"/><path class="ac" d="M1541.9-2657.371h-3.568a.353.353,0,0,1-.352-.352v-1.357a.354.354,0,0,1,.352-.354h3.568a.354.354,0,0,1,.352.354v1.357a.353.353,0,0,1-.352.352" transform="translate(1387.268 9128.416)"/><path class="ac" d="M1267.975-2747.646h-57.09a.7.7,0,0,1-.7-.7.7.7,0,0,1,.7-.7h57.09a.7.7,0,0,1,.7.7.7.7,0,0,1-.7.7" transform="translate(1675.729 9207.275)"/><path class="ac" d="M1267.975-2722.486h-57.09a.7.7,0,0,1-.7-.7.7.7,0,0,1,.7-.7h57.09a.7.7,0,0,1,.7.7.7.7,0,0,1-.7.7" transform="translate(1675.729 9185.135)"/><path class="ai" d="M2911.073-2913.847h-29.44v-17.159h22.141c2.851,2.85,4.449,4.448,7.3,7.3v9.86" transform="translate(204.859 9367.399)"/><path class="ad" d="M3061.633-2931.006v9.159h7.84v-1.76l-7.349-7.349-.491-.05" transform="translate(46.46 9367.399)"/><path class="ai" d="M3066.139-2931.006v7.4h7.3Z" transform="translate(42.494 9367.399)"/><path class="d" d="M2918.607-2884.979h-13.12a.522.522,0,0,1-.52-.52.522.522,0,0,1,.52-.52h13.12a.521.521,0,0,1,.52.52.521.521,0,0,1-.52.52" transform="translate(184.325 9327.812)"/><path class="d" d="M2918.607-2862.806h-13.12a.523.523,0,0,1-.52-.52.522.522,0,0,1,.52-.52h13.12a.521.521,0,0,1,.52.52.522.522,0,0,1-.52.52" transform="translate(184.325 9308.299)"/><path class="d" d="M2918.607-2839.473h-13.12a.523.523,0,0,1-.52-.52.522.522,0,0,1,.52-.52h13.12a.521.521,0,0,1,.52.52.522.522,0,0,1-.52.52" transform="translate(184.325 9287.767)"/><path class="aj" d="M2991.393-2926.473a.88.88,0,0,1-.88.88.88.88,0,0,1-.88-.88.88.88,0,0,1,.88-.88.879.879,0,0,1,.88.88" transform="translate(109.82 9364.185)"/><path class="ak" d="M1901.673-2927.9l-18.372-3.549,4.28-22.153,18.371,3.551-4.28,22.151" transform="translate(1083.388 9387.287)"/><path class="ac" d="M1965.386-2865l-9.739-1.881a.483.483,0,0,1-.381-.563.481.481,0,0,1,.563-.379l9.74,1.882a.481.481,0,0,1,.381.561.484.484,0,0,1-.563.381" transform="translate(1020.067 9311.802)"/><path class="ac" d="M1961.466-2844.7l-9.74-1.882a.484.484,0,0,1-.381-.563.479.479,0,0,1,.562-.379l9.741,1.882a.482.482,0,0,1,.381.562.484.484,0,0,1-.563.381" transform="translate(1023.517 9293.945)"/><path class="ac" d="M1957.439-2823.856l-9.739-1.883a.48.48,0,0,1-.381-.562.481.481,0,0,1,.562-.381l9.741,1.882a.481.481,0,0,1,.379.563.481.481,0,0,1-.562.381" transform="translate(1027.061 9275.603)"/><path class="aj" d="M1973.087-2935.828a.8.8,0,0,1-.936.634.8.8,0,0,1-.635-.937.8.8,0,0,1,.938-.634.8.8,0,0,1,.634.938" transform="translate(1005.773 9372.481)"/><path class="ac" d="M3031.7-2740.6l-28.431-3,1.877-17.821,22.543,2.374,5.269,6.509L3031.7-2740.6" transform="translate(97.817 9218.163)"/><path class="d" d="M3036.605-2747.39l-21.164-2.23-1.583,15.037,26.309,2.772.928-8.8-5.147-.542.656-6.232" transform="translate(88.501 9207.78)"/><path class="ac" d="M3075.2-2704.508l-13.709-1.445a.574.574,0,0,1-.51-.631.576.576,0,0,1,.63-.512l13.709,1.445a.578.578,0,0,1,.512.632.576.576,0,0,1-.632.511" transform="translate(47.035 9170.36)"/><path class="ac" d="M3072.548-2679.324l-13.709-1.443a.577.577,0,0,1-.51-.632.576.576,0,0,1,.631-.51l13.711,1.443a.578.578,0,0,1,.51.632.576.576,0,0,1-.632.51" transform="translate(49.37 9148.199)"/><path class="ac" d="M3069.778-2653.044l-13.709-1.444a.578.578,0,0,1-.512-.632.576.576,0,0,1,.632-.51l13.709,1.445a.575.575,0,0,1,.511.631.578.578,0,0,1-.631.511" transform="translate(51.809 9125.072)"/><path class="aj" d="M3101.993-2733.58a.88.88,0,0,1-.88.88.881.881,0,0,1-.88-.88.88.88,0,0,1,.88-.88.879.879,0,0,1,.88.88" transform="translate(12.492 9194.439)"/><path class="ag" d="M4273.435-2914.95a9.817,9.817,0,0,1-9.816,9.816,9.817,9.817,0,0,1-9.816-9.816,9.817,9.817,0,0,1,9.816-9.816,9.817,9.817,0,0,1,9.816,9.816" transform="translate(-1002.646 9361.907)"/><path class="d" d="M4304.409-2862.893l-.018,0a.471.471,0,0,1-.341-.162l-2.668-3.031a.481.481,0,0,1,.043-.677.482.482,0,0,1,.679.043l2.331,2.65,5.334-5.221a.478.478,0,0,1,.678.008.48.48,0,0,1-.006.678l-5.7,5.574a.481.481,0,0,1-.336.138" transform="translate(-1044.411 9313.211)"/><path class="ac" d="M630.688-2270.593h56.593a2.646,2.646,0,0,0,2.637-2.638v-20.22a2.645,2.645,0,0,0-2.637-2.637H630.688a2.645,2.645,0,0,0-2.637,2.637v20.22a2.646,2.646,0,0,0,2.637,2.638" transform="translate(2188.006 8808.674)"/><path class="ac" d="M962.473-2131.4v14.066l-16.209-16.208s15.879,2.143,16.209,2.143" transform="translate(1907.979 8665.633)"/><path class="d" d="M656.953-2254.582h51a2.243,2.243,0,0,0,2.236-2.235v-15.968a2.243,2.243,0,0,0-2.236-2.236h-51a2.243,2.243,0,0,0-2.236,2.236v15.968a2.243,2.243,0,0,0,2.236,2.235" transform="translate(2164.539 8790.135)"/><path class="ac" d="M857.165-2249.022h25.055a1.1,1.1,0,0,0,1.1-1.1,1.1,1.1,0,0,0-1.1-1.1H857.165a1.1,1.1,0,0,0-1.1,1.1,1.1,1.1,0,0,0,1.1,1.1" transform="translate(1987.353 8769.19)"/><path class="ac" d="M686.352-2206.946h46.47a.613.613,0,0,0,.611-.612v-.013a.613.613,0,0,0-.611-.612h-46.47a.613.613,0,0,0-.611.612v.013a.613.613,0,0,0,.611.612" transform="translate(2137.239 8731.315)"/><path class="ac" d="M686.352-2187.012h46.47a.613.613,0,0,0,.611-.611v-.013a.613.613,0,0,0-.611-.611h-46.47a.613.613,0,0,0-.611.611v.013a.613.613,0,0,0,.611.611" transform="translate(2137.239 8713.773)"/><path class="ac" d="M4129.669-2266.617h2.966a1.133,1.133,0,0,0,1.134-1.135v-2.441a1.133,1.133,0,0,0-1.134-1.135h-2.966a1.133,1.133,0,0,0-1.133,1.135v2.441a1.133,1.133,0,0,0,1.133,1.135" transform="translate(-892.412 8786.884)"/><path class="ac" d="M4050.363-2266.617h2.967a1.134,1.134,0,0,0,1.135-1.135v-2.441a1.134,1.134,0,0,0-1.135-1.135h-2.967a1.133,1.133,0,0,0-1.133,1.135v2.441a1.133,1.133,0,0,0,1.133,1.135" transform="translate(-822.623 8786.884)"/><path class="ac" d="M3971.056-2266.617h2.967a1.134,1.134,0,0,0,1.135-1.135v-2.441a1.134,1.134,0,0,0-1.135-1.135h-2.967a1.133,1.133,0,0,0-1.133,1.135v2.441a1.133,1.133,0,0,0,1.133,1.135" transform="translate(-752.833 8786.884)"/></g></svg>