<svg xmlns="http://www.w3.org/2000/svg" width="616.544" height="330.147" viewBox="0 0 616.544 330.147"><defs><style>.a{fill:#13b59c;opacity:0.1;}.b{fill:#aed3ff;}.c{fill:#d2e4ff;}.d{fill:#f3f9ff;}.e{fill:#f37168;}.f{fill:#a6c7f9;}.g{fill:#c65447;}.h{fill:#d54a41;}.i{fill:#a8d29f;}.j{fill:#82b378;}.k{fill:#5d0204;}.l{fill:#740306;}.m{fill:#ffb27d;}.n{fill:#fca56b;}.o{fill:#d68d5d;}.p{fill:#1c1c1c;}.q{fill:#fff;}.r{fill:#5f9aa8;}.s{fill:#e37970;}.t{fill:#c45446;}.u{fill:#e49963;}.v{fill:#f5dc95;}.w{fill:#10834b;}.x{fill:#1f1f1f;}.y{fill:#0a5d34;}.z{fill:#faeeca;}.aa{fill:#4a75cb;}</style></defs><g transform="translate(-301.931 -17174.575)"><path class="a" d="M1163.743-2262.608c-24.245-20.681-53.474-145.405-153.6-80.445-51.731,33.562-138.965-28.814-211.167-7.27-66.309,19.785-72.7,84.974-66.285,106.216,12.959,42.907-27.371,49.292-64.785,67.728-58.688,28.917-15.532,130.544,39.911,131.032s391.327-.968,391.327-.968,80.541.2,114.035-44.249c36.042-47.836,13.194-118.624-49.431-172.045" transform="translate(-311.836 19549.969)"/><path class="b" d="M3548.951-1976.037h138.033v-231.918H3548.951v231.918" transform="translate(-2799.213 19418.58)"/><path class="c" d="M3519.111-2207.955v231.918h138.032v-231.918H3519.111" transform="translate(-2773.699 19418.58)"/><path class="d" d="M3703.511-2037.813h-119.56v-80.781h119.56v80.781" transform="translate(-2829.139 19342.174)"/><path class="d" d="M4016-995.334H3951.83v-43.13H4016v43.13" transform="translate(-3143.686 18418.633)"/><path class="e" d="M3617.951-1835.608s20.414-2.544,32.889,8.949,35.711,1.017,45.069,0c16.268-1.771,29.021,3.551,32.8,9.4v17.551H3617.951v-35.9" transform="translate(-2858.209 19100.416)"/><path class="f" d="M3727.953-2001.617h-.856v-27.405h.856v27.405" transform="translate(-2951.533 19265.586)"/><path class="f" d="M3959.525-1920.5h-.854V-1947.9h.854v27.405" transform="translate(-3149.535 19196.227)"/><path class="f" d="M4198.457-1963.27h-.854v-27.405h.854v27.405" transform="translate(-3353.829 19232.797)"/><path class="f" d="M3756.007-2008.424h-6.559a.714.714,0,0,1-.711-.713h0a.713.713,0,0,1,.711-.711h6.559a.714.714,0,0,1,.711.711h0a.715.715,0,0,1-.711.713" transform="translate(-2970.035 19249.193)"/><path class="f" d="M3756.007-1990.729h-6.559a.714.714,0,0,1-.711-.713h0a.714.714,0,0,1,.711-.713h6.559a.715.715,0,0,1,.711.713h0a.715.715,0,0,1-.711.713" transform="translate(-2970.035 19234.064)"/><path class="f" d="M3984.127-1912.064h-6.557a.715.715,0,0,1-.713-.711h0a.715.715,0,0,1,.713-.713h6.557a.715.715,0,0,1,.713.713h0a.714.714,0,0,1-.713.711" transform="translate(-3165.085 19166.803)"/><path class="f" d="M3984.127-1894.729h-6.557a.715.715,0,0,1-.713-.713h0a.715.715,0,0,1,.713-.713h6.557a.715.715,0,0,1,.713.713h0a.715.715,0,0,1-.713.713" transform="translate(-3165.085 19151.98)"/><path class="f" d="M4226.993-1983.355h-6.557a.716.716,0,0,1-.713-.713h0a.716.716,0,0,1,.713-.713h6.557a.715.715,0,0,1,.714.713h0a.715.715,0,0,1-.714.713" transform="translate(-3372.742 19227.758)"/><path class="f" d="M4226.993-1966.022h-6.557a.716.716,0,0,1-.713-.713h0a.716.716,0,0,1,.713-.713h6.557a.715.715,0,0,1,.714.713h0a.715.715,0,0,1-.714.713" transform="translate(-3372.742 19212.941)"/><path class="d" d="M4245.8-1488.459a11.805,11.805,0,0,1,11.806-11.8,11.8,11.8,0,0,1,11.8,11.8,11.8,11.8,0,0,1-11.8,11.8,11.8,11.8,0,0,1-11.806-11.8" transform="translate(-3395.041 18813.482)"/><path class="g" d="M4294.964-1482.564a10.8,10.8,0,0,1-10.8,10.805,10.761,10.761,0,0,1-7.3-2.843l7.3-7.962v-10.805a10.8,10.8,0,0,1,10.8,10.805" transform="translate(-3421.593 18807.588)"/><path class="f" d="M4274.048-1435.8h-3.88a.326.326,0,0,1-.326-.324h0a.327.327,0,0,1,.326-.325h3.88a.326.326,0,0,1,.324.325h0a.325.325,0,0,1-.324.324" transform="translate(-3415.596 18758.92)"/><path class="d" d="M4043.631-1488.459a11.8,11.8,0,0,1,11.8-11.8,11.806,11.806,0,0,1,11.806,11.8,11.806,11.806,0,0,1-11.806,11.8,11.8,11.8,0,0,1-11.8-11.8" transform="translate(-3222.178 18813.482)"/><path class="h" d="M4061.331-1482.564l6.638,8.524a10.74,10.74,0,0,1-6.638,2.281,10.806,10.806,0,0,1-10.807-10.805,10.806,10.806,0,0,1,10.807-10.805,10.805,10.805,0,0,1,10.759,9.817l-10.759.988" transform="translate(-3228.072 18807.588)"/><path class="f" d="M4164.615-1404.24h-2.7a.325.325,0,0,1-.325-.325h0a.324.324,0,0,1,.325-.325h2.7a.325.325,0,0,1,.324.325h0a.327.327,0,0,1-.324.325" transform="translate(-3323.037 18731.938)"/><path class="d" d="M4245.8-1264.179a11.8,11.8,0,0,1,11.806-11.8,11.8,11.8,0,0,1,11.8,11.8,11.805,11.805,0,0,1-11.8,11.806,11.807,11.807,0,0,1-11.806-11.806" transform="translate(-3395.041 18621.715)"/><path class="e" d="M4294.964-1258.274a10.8,10.8,0,0,1-10.8,10.805,10.752,10.752,0,0,1-7.3-2.843l7.3-7.962v-10.8a10.8,10.8,0,0,1,10.8,10.8" transform="translate(-3421.593 18615.811)"/><path class="f" d="M4274.048-1211.519h-3.88a.327.327,0,0,1-.326-.327h0a.327.327,0,0,1,.326-.325h3.88a.326.326,0,0,1,.324.325h0a.327.327,0,0,1-.324.327" transform="translate(-3415.596 18567.156)"/><path class="d" d="M4043.631-1264.179a11.8,11.8,0,0,1,11.8-11.8,11.806,11.806,0,0,1,11.806,11.8,11.807,11.807,0,0,1-11.806,11.806,11.805,11.805,0,0,1-11.8-11.806" transform="translate(-3222.178 18621.715)"/><path class="g" d="M4072.089-1259.259a10.806,10.806,0,0,0-10.759-9.818,10.8,10.8,0,0,0-10.807,10.8,10.806,10.806,0,0,0,10.807,10.805,10.741,10.741,0,0,0,6.638-2.281l-6.638-8.524,10.759-.986" transform="translate(-3228.072 18615.811)"/><path class="f" d="M4164.615-1179.961h-2.7a.324.324,0,0,1-.325-.325h0a.325.325,0,0,1,.325-.325h2.7a.327.327,0,0,1,.324.325h0a.325.325,0,0,1-.324.325" transform="translate(-3323.037 18540.168)"/><path class="f" d="M4027.995-967h-58.9v-34.8h.733v34.068h58.166V-967" transform="translate(-3158.449 18387.275)"/><path class="f" d="M4008.348-940.274c-7.21-5.739-14.878,0-14.878,0v9.812h53.9v-25.362c-14.648.369-31.814,21.289-39.024,15.55" transform="translate(-3179.29 18347.969)"/><path class="f" d="M3994.089-990.776h25.117a.62.62,0,0,0,.616-.618.619.619,0,0,0-.616-.617h-25.117a.62.62,0,0,0-.619.617.62.62,0,0,0,.619.618" transform="translate(-3179.29 18378.91)"/><path class="f" d="M3994.089-969.976h25.117a.62.62,0,0,0,.616-.618.619.619,0,0,0-.616-.617h-25.117a.62.62,0,0,0-.619.617.62.62,0,0,0,.619.618" transform="translate(-3179.29 18361.129)"/><path class="f" d="M3993.977-950.336h16.629a.508.508,0,0,0,.506-.506v-.224a.508.508,0,0,0-.506-.5h-16.629a.508.508,0,0,0-.507.5v.224a.509.509,0,0,0,.507.506" transform="translate(-3179.29 18344.332)"/><path class="c" d="M2247.647-2171.791H2058.782v-284.83h188.865v284.83" transform="translate(-1525.074 19631.195)"/><path class="d" d="M2336.719-2177.228H2184.661v-169.486h152.058v169.486" transform="translate(-1632.705 19537.223)"/><path class="d" d="M2206.955-965.37a27.348,27.348,0,0,1,27.347-27.347,27.347,27.347,0,0,1,27.347,27.347,27.346,27.346,0,0,1-27.347,27.345,27.347,27.347,0,0,1-27.347-27.345" transform="translate(-1651.766 18379.518)"/><path class="e" d="M2282.373-940.426a23.117,23.117,0,0,0-23.115-23.118,23.118,23.118,0,0,0-23.118,23.118,23.117,23.117,0,0,0,23.118,23.116,23,23,0,0,0,14.02-4.738l-14.02-18.378,21.6,8.244a23.058,23.058,0,0,0,1.514-8.244" transform="translate(-1676.722 18354.572)"/><path class="d" d="M2849.673-965.37a27.347,27.347,0,0,1,27.347-27.347,27.347,27.347,0,0,1,27.347,27.347,27.346,27.346,0,0,1-27.347,27.345,27.346,27.346,0,0,1-27.347-27.345" transform="translate(-2201.31 18379.518)"/><path class="e" d="M2901.975-963.544a23.116,23.116,0,0,0-23.116,23.118,23.022,23.022,0,0,0,6.642,16.214l16.474-16.214,21.6,8.244a23.105,23.105,0,0,0,1.513-8.244,23.117,23.117,0,0,0-23.116-23.118" transform="translate(-2226.265 18354.572)"/><path class="h" d="M2952.828-885.038h-9.839a.706.706,0,0,0-.7.7h0a.7.7,0,0,0,.7.7h9.839a.7.7,0,0,0,.7-.7h0a.706.706,0,0,0-.7-.7" transform="translate(-2280.496 18287.445)"/><path class="h" d="M2952.828-869.678h-9.839a.7.7,0,0,0-.7.7.706.706,0,0,0,.7.7h9.839a.706.706,0,0,0,.7-.7.7.7,0,0,0-.7-.7" transform="translate(-2280.496 18274.313)"/><path class="h" d="M2947.052-854.331h-4.063a.706.706,0,0,0-.7.7.7.7,0,0,0,.7.7h4.063a.7.7,0,0,0,.7-.7.7.7,0,0,0-.7-.7" transform="translate(-2280.496 18261.191)"/><path class="h" d="M2308.8-885.038h-9.841a.706.706,0,0,0-.7.7h0a.7.7,0,0,0,.7.7h9.841a.7.7,0,0,0,.7-.7h0a.7.7,0,0,0-.7-.7" transform="translate(-1729.836 18287.445)"/><path class="h" d="M2308.8-869.678h-9.841a.7.7,0,0,0-.7.7.706.706,0,0,0,.7.7h9.841a.7.7,0,0,0,.7-.7.7.7,0,0,0-.7-.7" transform="translate(-1729.836 18274.313)"/><path class="h" d="M2303.028-854.331h-4.063a.706.706,0,0,0-.7.7.7.7,0,0,0,.7.7h4.063a.7.7,0,0,0,.7-.7.706.706,0,0,0-.7-.7" transform="translate(-1729.836 18261.191)"/><path class="f" d="M2278.061-1828.946h16.045V-1928.9h-16.045v99.956" transform="translate(-1712.564 19179.98)"/><path class="f" d="M2459.394-1993.271h16.045v-127.817h-16.045v127.817" transform="translate(-1867.61 19344.307)"/><path class="f" d="M2657.247-1686.384h16.047v-75.785h-16.047v75.785" transform="translate(-2036.779 19037.42)"/><path class="f" d="M2849.78-1892.628h16.045v-110.753H2849.78v110.753" transform="translate(-2201.401 19243.662)"/><path class="f" d="M3043.313-1659.849v60.951h16.045v-60.951h-16.045" transform="translate(-2366.877 18949.932)"/><path class="f" d="M2866.775-2102.781h-13.589a1.412,1.412,0,0,0-1.407,1.407,1.41,1.41,0,0,0,1.407,1.405h13.589a1.409,1.409,0,0,0,1.405-1.405,1.41,1.41,0,0,0-1.405-1.407" transform="translate(-2203.11 19328.65)"/><path class="f" d="M2856.281-2067.488h-3.095a1.411,1.411,0,0,0-1.407,1.406,1.411,1.411,0,0,0,1.407,1.405h3.095a1.409,1.409,0,0,0,1.405-1.405,1.41,1.41,0,0,0-1.405-1.406" transform="translate(-2203.111 19298.477)"/><path class="f" d="M2480.523-2252.941h-13.588a1.411,1.411,0,0,0-1.407,1.405,1.413,1.413,0,0,0,1.407,1.407h13.588a1.41,1.41,0,0,0,1.405-1.407,1.409,1.409,0,0,0-1.405-1.405" transform="translate(-1872.853 19457.043)"/><path class="f" d="M2470.029-2217.648h-3.095a1.411,1.411,0,0,0-1.407,1.405h0a1.411,1.411,0,0,0,1.407,1.405h3.095a1.409,1.409,0,0,0,1.405-1.405h0a1.409,1.409,0,0,0-1.405-1.405" transform="translate(-1872.853 19426.867)"/><path class="f" d="M2671.027-1865.075h-13.589a1.409,1.409,0,0,0-1.405,1.405,1.41,1.41,0,0,0,1.405,1.407h13.589a1.41,1.41,0,0,0,1.405-1.407,1.409,1.409,0,0,0-1.405-1.405" transform="translate(-2035.742 19125.406)"/><path class="f" d="M2660.533-1829.782h-3.095a1.409,1.409,0,0,0-1.405,1.405h0a1.409,1.409,0,0,0,1.405,1.405h3.095a1.409,1.409,0,0,0,1.405-1.405h0a1.409,1.409,0,0,0-1.405-1.405" transform="translate(-2035.742 19095.229)"/><path class="f" d="M3057.082-1762.169h-13.589a1.412,1.412,0,0,0-1.407,1.407,1.41,1.41,0,0,0,1.407,1.405h13.589a1.409,1.409,0,0,0,1.4-1.405,1.41,1.41,0,0,0-1.4-1.407" transform="translate(-2365.828 19037.42)"/><path class="f" d="M3046.588-1726.876h-3.095a1.411,1.411,0,0,0-1.407,1.405,1.411,1.411,0,0,0,1.407,1.405h3.095a1.409,1.409,0,0,0,1.405-1.405,1.409,1.409,0,0,0-1.405-1.405" transform="translate(-2365.828 19007.242)"/><path class="b" d="M930.836-1711.876v77.71H1068.87v-77.71H930.836" transform="translate(-560.648 18994.418)"/><path class="c" d="M961.8-1711.876v77.71H1099.83v-77.71H961.8" transform="translate(-587.121 18994.418)"/><path class="d" d="M1075-1628.129a24.958,24.958,0,0,0-24.958,24.958A24.958,24.958,0,0,0,1075-1578.213a24.958,24.958,0,0,0,24.957-24.958A24.958,24.958,0,0,0,1075-1628.129" transform="translate(-662.573 18922.813)"/><path class="d" d="M1546.987-1552.143h-41.345a2.732,2.732,0,0,0-2.725,2.725h0a2.732,2.732,0,0,0,2.725,2.724h41.345a2.731,2.731,0,0,0,2.724-2.724h0a2.732,2.732,0,0,0-2.724-2.725" transform="translate(-1049.793 18857.84)"/><path class="d" d="M1546.987-1474.757h-41.345a2.732,2.732,0,0,0-2.725,2.724h0a2.732,2.732,0,0,0,2.725,2.724h41.345a2.731,2.731,0,0,0,2.724-2.724h0a2.732,2.732,0,0,0-2.724-2.724" transform="translate(-1049.793 18791.672)"/><path class="d" d="M1546.987-1397.383h-41.345a2.733,2.733,0,0,0-2.725,2.725,2.732,2.732,0,0,0,2.725,2.724h41.345a2.732,2.732,0,0,0,2.724-2.724,2.733,2.733,0,0,0-2.724-2.725" transform="translate(-1049.793 18725.518)"/><path class="i" d="M1064.577-1593.238h22.851v-22.851a22.852,22.852,0,0,0-22.851,22.851" transform="translate(-675 18912.516)"/><path class="e" d="M1110.279-1453.4h-45.7a22.852,22.852,0,0,0,22.851,22.851h0a22.851,22.851,0,0,0,22.85-22.851" transform="translate(-675 18773.408)"/><path class="j" d="M1114.266-1539.5h-12.4a1.286,1.286,0,0,0-1.283,1.283,1.286,1.286,0,0,0,1.283,1.281h12.4a1.285,1.285,0,0,0,1.283-1.281,1.286,1.286,0,0,0-1.283-1.283" transform="translate(-705.784 18847.031)"/><path class="j" d="M1104.689-1507.3h-2.825a1.287,1.287,0,0,0-1.283,1.284,1.286,1.286,0,0,0,1.283,1.282h2.825a1.286,1.286,0,0,0,1.283-1.282,1.287,1.287,0,0,0-1.283-1.284" transform="translate(-705.784 18819.5)"/><path class="h" d="M1241.271-1414.863h-12.4a1.287,1.287,0,0,0-1.283,1.283,1.288,1.288,0,0,0,1.283,1.283h12.4a1.287,1.287,0,0,0,1.283-1.283,1.287,1.287,0,0,0-1.283-1.283" transform="translate(-814.378 18740.463)"/><path class="h" d="M1231.693-1382.663h-2.824a1.287,1.287,0,0,0-1.283,1.284h0a1.287,1.287,0,0,0,1.283,1.283h2.824a1.287,1.287,0,0,0,1.283-1.283h0a1.287,1.287,0,0,0-1.283-1.284" transform="translate(-814.378 18712.932)"/><path class="b" d="M863.775-1079.851v79.473h138.032v-79.473H863.775" transform="translate(-503.308 18454.016)"/><path class="c" d="M894.736-1079.851v79.473H1032.77v-79.473H894.736" transform="translate(-529.781 18454.016)"/><path class="d" d="M982.969-969.879a24.958,24.958,0,0,1,24.958-24.958,24.958,24.958,0,0,1,24.957,24.958,24.958,24.958,0,0,1-24.957,24.958,24.958,24.958,0,0,1-24.958-24.958" transform="translate(-605.223 18381.326)"/><path class="d" d="M1438.573-913.4h41.346a2.735,2.735,0,0,0,2.726-2.726,2.733,2.733,0,0,0-2.726-2.723h-41.346a2.731,2.731,0,0,0-2.723,2.723,2.733,2.733,0,0,0,2.723,2.726" transform="translate(-992.449 18316.355)"/><path class="d" d="M1479.919-841.478h-41.346a2.733,2.733,0,0,0-2.723,2.726,2.731,2.731,0,0,0,2.723,2.723h41.346a2.733,2.733,0,0,0,2.726-2.723,2.735,2.735,0,0,0-2.726-2.726" transform="translate(-992.449 18250.201)"/><path class="d" d="M1479.919-764.091h-41.346a2.731,2.731,0,0,0-2.723,2.724h0a2.733,2.733,0,0,0,2.723,2.725h41.346a2.735,2.735,0,0,0,2.726-2.725h0a2.733,2.733,0,0,0-2.726-2.724" transform="translate(-992.449 18184.035)"/><path class="e" d="M1020.357-821.6l-22.849-.29c0,.1,0,.2,0,.29a22.852,22.852,0,0,0,22.851,22.851,22.738,22.738,0,0,0,12.26-3.566l-12.26-19.285" transform="translate(-617.652 18233.455)"/><path class="h" d="M1080.225-770.251h-12.4a1.286,1.286,0,0,0-1.283,1.283h0a1.286,1.286,0,0,0,1.283,1.281h12.4a1.286,1.286,0,0,0,1.283-1.281h0a1.286,1.286,0,0,0-1.283-1.283" transform="translate(-676.678 18189.301)"/><path class="h" d="M1070.648-738.051h-2.825a1.287,1.287,0,0,0-1.283,1.283,1.287,1.287,0,0,0,1.283,1.284h2.825a1.287,1.287,0,0,0,1.283-1.284,1.287,1.287,0,0,0-1.283-1.283" transform="translate(-676.678 18161.77)"/><path class="b" d="M863.775-2296.474v72.015h138.034v-72.015H863.775" transform="translate(-503.308 19494.268)"/><path class="c" d="M894.736-2296.474v72.015H1032.77v-72.015H894.736" transform="translate(-529.781 19494.268)"/><path class="d" d="M982.972-2188a24.958,24.958,0,0,1,24.958-24.958A24.958,24.958,0,0,1,1032.888-2188a24.958,24.958,0,0,1-24.958,24.958A24.958,24.958,0,0,1,982.972-2188" transform="translate(-605.225 19422.855)"/><path class="i" d="M1020.359-2198.408a22.85,22.85,0,0,0-22.851,22.85,22.845,22.845,0,0,0,11.884,20.05c3.661-6.781,10.967-20.05,10.967-20.05l10.819,20.129a22.843,22.843,0,0,0,12.03-20.129,22.848,22.848,0,0,0-22.849-22.85" transform="translate(-617.654 19410.42)"/><path class="d" d="M1479.919-2136.968h-41.346a2.731,2.731,0,0,0-2.723,2.723h0a2.732,2.732,0,0,0,2.723,2.726h41.346a2.734,2.734,0,0,0,2.726-2.726h0a2.733,2.733,0,0,0-2.726-2.723" transform="translate(-992.449 19357.887)"/><path class="d" d="M1479.919-2059.582h-41.346a2.731,2.731,0,0,0-2.723,2.723,2.731,2.731,0,0,0,2.723,2.724h41.346a2.733,2.733,0,0,0,2.726-2.724,2.733,2.733,0,0,0-2.726-2.723" transform="translate(-992.449 19291.715)"/><path class="d" d="M1479.919-1982.209h-41.346a2.732,2.732,0,0,0-2.723,2.724,2.732,2.732,0,0,0,2.723,2.726h41.346a2.734,2.734,0,0,0,2.726-2.726,2.733,2.733,0,0,0-2.726-2.724" transform="translate(-992.449 19225.559)"/><path class="j" d="M1080.227-2116.074h-12.4a1.287,1.287,0,0,0-1.283,1.284,1.285,1.285,0,0,0,1.283,1.281h12.4a1.285,1.285,0,0,0,1.283-1.281,1.287,1.287,0,0,0-1.283-1.284" transform="translate(-676.68 19340.021)"/><path class="j" d="M1070.65-2083.875h-2.824a1.287,1.287,0,0,0-1.283,1.284h0a1.287,1.287,0,0,0,1.283,1.283h2.824a1.287,1.287,0,0,0,1.283-1.283h0a1.287,1.287,0,0,0-1.283-1.284" transform="translate(-676.681 19312.49)"/><path class="h" d="M2067.728-1438.583s16.1,16.623,16.875,22.89-7.66,16.072-7.66,16.072l-9.214-38.962" transform="translate(-1532.724 18760.744)"/><path class="h" d="M1892.222-265.923s-.549,8.837-2.258,8.963c-.228.017-8.671.017-8.671.017L1870.515-257a3.5,3.5,0,0,1,3.22-3.147c3.151-.549,8.426-2.764,10.333-6.928,2.008-4.38,8.153,1.156,8.153,1.156" transform="translate(-1364.101 17760.516)"/><path class="h" d="M2057.628-265.923s-.549,8.837-2.258,8.963c-.228.017-8.671.017-8.671.017l-10.811-.039a3.566,3.566,0,0,1,3.253-3.17c3.151-.549,8.426-2.764,10.334-6.928,2.008-4.38,8.153,1.156,8.153,1.156" transform="translate(-1505.5 17760.516)"/><path class="k" d="M1937.9-982.475s2.82,18.03,13.335,50.036,11.949,45.863,11.949,45.863a46.2,46.2,0,0,0,5.849.414,37.046,37.046,0,0,0,5.432-.729s.1-34.979-4.749-51.072-1.046-58.021-1.046-58.021l-30.77,13.509" transform="translate(-1421.718 18382.311)"/><path class="l" d="M1899.986-989.171a437.738,437.738,0,0,0,4.3,60.528c4.7,33.359,3.106,47.519,3.106,47.519s3.87.692,5.231.738c1.454.048,6.029-.365,6.029-.365s6.729-33.37,4.8-50.067,9.212-57.3,9.212-57.3l-32.68-1.057" transform="translate(-1389.292 18376.484)"/><path class="m" d="M1973.794-1506.964l-5.31,3.934-7.676-1.616c.106-.7.613-3.6,1.075-6.228.027-.155.056-.309.081-.462.4-2.234.736-4.156.736-4.156l7.169-3.572,2.671-1.332c-.006.047-.207,2.48-.234,2.836a22.941,22.941,0,0,0,1.486,10.6" transform="translate(-1441.304 18830.697)"/><path class="h" d="M1944.063-1457.739c.168-.07,10.44-3.1,11.555-2.733s1.776,2.528,1.776,2.528l-16.8,3.8a8.349,8.349,0,0,1,3.468-3.593" transform="translate(-1424.021 18779.484)"/><path class="e" d="M1925.632-1374.252c-1.74,7.943-30.716,8.884-38.185,1.674-.85-.822-.891-4.645-.57-9.8.626-10.071,2.639-25.221,2.718-32.962a61.155,61.155,0,0,1,1.235-11.033,89.657,89.657,0,0,1,3.675-13.206s14.153-4.575,16.8-3.8c12.759,3.748,16.068,61.181,14.327,69.124" transform="translate(-1377.932 18764.918)"/><path class="h" d="M1887.969-1290.433c.626-10.07,2.639-25.221,2.718-32.962a61.144,61.144,0,0,1,1.235-11.033l8.514-1.5s8.323,34-12.467,45.5" transform="translate(-1379.024 18672.975)"/><path class="m" d="M1905.462-1126.734a2,2,0,0,1-.64,2.319c-1.218.932-2.008,2.44-1.73,3.543s2.953,2.9,3.879,2.611,2.813-1.743,2.609-2.325,1.27-5.1-.99-6.844-3.13.7-3.13.7" transform="translate(-1391.908 18495.234)"/><path class="e" d="M1838.728-1430.716s-8.3,1.554-14.92,11.3-10.967,17-9.75,20.512,12.328,15.7,14.244,15.7,5.006-1.393,5.18-4.527c0,0-7.823-11.723-6.282-13.479.659-.75,10.156-8.458,11.51-4.977,2.242,5.762.017-24.535.017-24.535" transform="translate(-1315.653 18754.018)"/><path class="n" d="M1978.107-1509.6c-1.573,3.012-7.438,5.617-9.885,6.574.027-.155.056-.309.081-.462.4-2.234.737-4.156.737-4.156l7.169-3.572c1.583-.025,2.548.377,1.9,1.616" transform="translate(-1447.643 18822.846)"/><path class="m" d="M1950.115-1588.439s10.61,3.309,12.57-3.33,4.649-10.683-2.043-13.078-8.762-.249-9.955,1.807-3.282,13.569-.572,14.6" transform="translate(-1431.026 18903.807)"/><path d="M1958.873-1625.062s.676,7.726,2.275,7.391,3.046-.586,2.813,1.743-2.449,5.018,2.474,5.432,12-12.288,10.651-14.692c-3.9-6.937-23.852-8.339-18.212.126" transform="translate(-1438.797 18925.189)"/><path class="m" d="M647-352.119l3.23,13.606,4.839-.027.177-13.579H647" transform="translate(-317.958 17831.785)"/><path class="m" d="M927.747-358.676l9.191,13.026,3.582-4.6-5.532-10.216-7.242,1.79" transform="translate(-558.006 17838.922)"/><path d="M503.915-1594.3a9.389,9.389,0,0,0-5.072-.97,2.377,2.377,0,0,1,1.07-.506,7.863,7.863,0,0,0-2.806.731c-12.077-4.653-13.975,13.13-13.721,17.261s-4.058,5.48-10.342,8.735C461.055-1562.838,460-1554.52,460-1554.52c.093.054.191.118.295.189.595-1.009,1.819-2.9,2.852-3.186a42.5,42.5,0,0,0-1.661,4.046c3.537,2.691,10.153,8.652,14.764,12.877a6.772,6.772,0,0,1,.314-2.617l.57,3.431c2.467,2.267,4.169,3.864,4.169,3.864-.3-3.338,15.1-20.957,23.136-26.234,1.956-2.88,2.652-7.968,2.7-8.368a21.965,21.965,0,0,1-1.645,7.571c6.805-6.265,2.843-28.835-1.584-31.352" transform="translate(-158.07 18895.182)"/><path class="m" d="M696.147-1431.964c.04.017-3.88,2.055-6.829,1.247-2.774-.756-4.586-4.353-4.548-4.361,1.175-.234,1.513-1.848,1.489-8.785l.531.1,8.929,1.769s-.2,2.811-.209,5.459c-.006,2.223.129,4.33.638,4.568" transform="translate(-350.253 18765.258)"/><path d="M693.6-1577.985a7.138,7.138,0,0,1,9.935-.24s-3.219-.557-9.935.24" transform="translate(-357.803 18881.783)"/><path class="o" d="M707.633-1441.374s-.2,2.81-.209,5.458c-5-.141-7.638-4.7-8.72-7.227l8.929,1.769" transform="translate(-362.168 18764.643)"/><path d="M672.74-1558.053a26.266,26.266,0,0,1-3.247-7.676c-.449-2.526.838-11.89,10.246-10.54a12.769,12.769,0,0,1,5.3,2c2.043,1.38,4.991,4.357,1.695,12.527l-.856,2.76-13.138.924" transform="translate(-337.126 18878.582)"/><path class="p" d="M706.856-918.674l-4.733.145-5.124.156a101.118,101.118,0,0,1-18.472-34.3c-.155-.491-.318-.99-.491-1.492-3.633-10.593-11.164-23.889-15.133-35.924-.632-1.917-1.2-3.721-1.708-5.43-.163-.547-.322-1.084-.473-1.614a127.621,127.621,0,0,1-4.552-23.963l28.659.228a534.228,534.228,0,0,0,22.027,102.188" transform="translate(-325.8 18403.777)"/><path class="q" d="M608.375-1352.23c-.072,13.637,2,19.488,2,19.488a38.5,38.5,0,0,1-26.854,1.645c-.172-.054-12.076-2.77-12.076-2.77.244-.553,2.415-9.742,2.652-10.248,3.079-6.613,5.417-9.512,5.782-11.545a43.24,43.24,0,0,0,.354-11.426,91.7,91.7,0,0,0-3.536-17.944,93.643,93.643,0,0,0,11.934-4c.951,1.185,3.757,2.381,6.279,2.325,2.905-.064,3.812-1.293,3.706-2.677,3.1,1.724,5.557,3.361,5.557,3.361,2.631,4.571,7.967,9.009,8.354,16.02.1,1.724-4.15,17.389-4.152,17.771" transform="translate(-253.358 18718.676)"/><path class="r" d="M599.371-1262.4c-1.253,1.774-3.654,12.551-9.63,13.906,3.079-7.681,5.417-11.049,5.782-13.411a58.247,58.247,0,0,0,.354-13.271c2-3.506,3.493-5.909,3.493-5.909.157-.568,3.179-9.91,4.147-1.56s-2.748,18.262-4.147,20.245" transform="translate(-269.001 18630.369)"/><path class="m" d="M701.251-1531.307s-11.822.2-11.83-7.169-1.54-12.3,6.008-12.734,9.017,2.371,9.618,4.83-.721,14.833-3.8,15.073" transform="translate(-354.116 18857.082)"/><path d="M682.275-1560.092c-1.824-2.211-3.2-1.73-3.979-1.065-2.555-3.817-10.629,1.7-10.629,1.7a14.059,14.059,0,0,1-4.6,8.31s2.155,1.332,7.122.054c3.91-1.005,6.747-6.57,7.778-8.893a9.372,9.372,0,0,1,2.631,3.483c.589,1.875.854,5.735,1.98,5.6,0,0,2.439-5.872-.3-9.195" transform="translate(-331.697 18866.697)"/><path class="m" d="M664.082-263.519a13.113,13.113,0,0,1-.616,5.578s-.792,3.609,2.762,3.676,4.425-.269,4.023-2.482-1.168-6.039-1.168-6.039l-5-.735" transform="translate(-331.974 17756.029)"/><path d="M668.753-220.14l-.012.008h-7.353l-.012-.008a18.967,18.967,0,0,1,.255-5.443c4.024,3.847,6.543-.1,6.543-.1.653,1.645.578,5.54.578,5.54" transform="translate(-330.141 17723.674)"/><path class="m" d="M995.687-278.858s-6.552-7.44-8.564-11.141l-4.872,2.5,10.891,10.227,2.548-.336,0-1.247" transform="translate(-604.609 17778.672)"/><path d="M992.122-260.567h-9.091a14.823,14.823,0,0,1-2.5-4.08,4.4,4.4,0,0,0-2.967-2.024v6.1h-1.881l-1.742-6.491c-1.16-2.175-.289-4.169.527-5.888.949,0,3.7.684,8.542,6.245a6.3,6.3,0,0,0,5.091,2.424.431.431,0,0,0,.072.039c2.756,1.264,3.655,2.818,3.947,3.671" transform="translate(-597.026 17764.088)"/><path class="s" d="M808.217-1380.679s-7.761,4.339-10.533,5.59c-.986.445-2.772,1.276-4.6,2.128-1.1.514-2.217,1.038-3.182,1.492a4,4,0,0,1-4.74-1.023c-4.2-4.906-15.077-15.541-26.308-16.875l-.039-.017.005.014-.014,0,.062.122c.631,1.57,6.788,16.952,6.979,20.2.2,3.42.8,55.922.8,55.922s-.4,2.414,4.225,1.409,5.833-2.012,5.833-2.012-4.426-32.386-3.218-43.652a25.074,25.074,0,0,0-.471-7.26,57.645,57.645,0,0,0,14.9,5.986,67.842,67.842,0,0,0,7.681-4.208,48.225,48.225,0,0,0,6.477-5.211,95.316,95.316,0,0,0,7.362-8.474l-1.233-4.125" transform="translate(-413.561 18718.676)"/><path d="M728.972-796.078l-5.124.157a101.121,101.121,0,0,1-18.472-34.3c-.155-.491-.318-.99-.491-1.492-3.633-10.592-11.164-23.889-15.133-35.924-.632-1.917-1.2-3.721-1.708-5.43-.163-.547-.322-1.084-.473-1.614l4.22-3.2s12.671,20.518,16.593,39.826c3.408,16.772,17.054,36.954,20.587,41.974" transform="translate(-352.649 18281.322)"/><path class="p" d="M590.268-868.369c.073,9.39-.4,30.979-1.625,39.917H584.1c-2.508,0-3.76-.037-3.76-.037-3.068-15.539-5.25-28.4-6.84-39.476-1.3-9.093-2.462-16.888-3.353-23.6-.9-6.752-1.521-12.408-1.744-17.184q-.052-1.128-.075-2.2t-.012-2.082l24.763-2.412c-.312,16.451-2.857,41.612-2.816,47.069" transform="translate(-250.684 18313.436)"/><path d="M584.631-788.995c-2.508,0-3.759-.037-3.759-.037-3.068-15.539-5.25-28.4-6.84-39.476-1.3-9.093-2.462-16.888-3.353-23.6-.9-6.752-1.521-12.408-1.744-17.184l9.086,5.345s-5.8,2.045-3.587,17.536,7.117,55.222,10.2,57.416" transform="translate(-251.211 18273.982)"/><path class="s" d="M553.188-1312.063s-1.744,6.3-7.779,5.5-14.616-4.424-14.616-4.424,2.579-8.149,5.785-18.856c3.883-12.96,8.688-29.668,10.953-40.207a65.2,65.2,0,0,0,1.231-7.185l5.11-9.719s7.361,16.759,7.763,20.984-8.448,53.91-8.448,53.91" transform="translate(-218.599 18716.6)"/><path class="m" d="M706.009-1211.235c-2.9.383-4.018,1.925-4.377,4.007a8.836,8.836,0,0,1-1.265,3.019c-2.893.155-9.783.53-15.572.9l-.478,7.593a86.64,86.64,0,0,0,17.324-4.1,4.535,4.535,0,0,0,1.972-1.073c4.167-3.414,6.533-9.129,6.54-9.947s-1.241-.777-4.145-.4" transform="translate(-349.867 18566.58)"/><path class="t" d="M587.042-1257.426c-.269,6.839-1.879,20.114-16.227,27.221-.038.017-.076.039-.115.054,3.883-12.96,8.688-29.669,10.953-40.207,2.635,3.939,5.536,9.164,5.389,12.932" transform="translate(-252.72 18616.906)"/><path class="s" d="M584.888-1386.957s-12.274.87-15.224,7.442-3.889,28.43-.134,34.866c0,0,5.17,1.473,14.313-.236.112-.021.225-.043.338-.066,0,0,2.917-7.14.3-8.549,0,0-7.711.4-6.906-2.145s7.312-31.312,7.312-31.312" transform="translate(-249.614 18716.6)"/><path class="m" d="M1108.229-1365.4a7.379,7.379,0,0,0-8.27,5.157l1.233,4.125c2.035.282,3.816-.249,5.458-2.6s2.093-1.446,3.136-3.193c1.415-2.37-.8-3.253-1.557-3.491" transform="translate(-705.252 18698.24)"/><path class="m" d="M999.847-1323.753c-.986.444-2.772,1.276-4.6,2.128.976,1.734,2.2,4.885,2.522,10.092a42.143,42.143,0,0,0,6.671-5.374,88.323,88.323,0,0,0,7.169-8.312l-1.233-4.125s-7.761,4.34-10.533,5.59" transform="translate(-615.724 18667.34)"/><path class="u" d="M3342.515-960.744s-4.7,1.206-7.68.307-8.122.576-8.95,1.664-.523,1.521.954,1.9,6.705,2.606,10.144,1.314a27.377,27.377,0,0,1,7.92-1.338l-2.387-3.846" transform="translate(-2608.099 18352.178)"/><path class="v" d="M3463.11-1272.974s-5.275,37.489-14.01,40.847c-4.309,1.658-23.356,5.414-28.99,5.791,0,0-1.381-1.119-1.044-5.677,0,0,19.955-7.328,22.79-11.312,4.219-5.928-2.619-24.224,2.675-29.792s14.211-7.963,18.58.143" transform="translate(-2688.112 18623.617)"/><path class="w" d="M3564.256-597.495v-8.174h12.87a.633.633,0,0,0,.632-.63v-1.311a.635.635,0,0,0-.632-.632h-12.87v-46.53a2.38,2.38,0,0,0-2.374-2.374h-2.546a2.38,2.38,0,0,0-2.374,2.374v46.53h-12.87a.634.634,0,0,0-.631.632v1.311a.633.633,0,0,0,.631.63h12.87v8.174c-9.311.7-16.772,4.055-18.865,8.387h45.024c-2.093-4.332-9.554-7.683-18.865-8.387" transform="translate(-2789.933 18092.592)"/><path d="M3397.972-827.106a65.493,65.493,0,0,1-5.151,7.372c-5.669,7.158-11.841,13.059-12.916,18.637a25.335,25.335,0,0,1-1,3.57c-.449,1.278-1,2.621-1.645,4.009a123.5,123.5,0,0,1-9.595,16.4c-6.21,9.2-12.048,16.878-12.048,16.878l-10.708-.456c.429-1.073,5.1-13.778,11.346-29.3,2.538-6.3,5.234-13.007,7.838-19.472.346-.864.694-1.722,1.036-2.575.8-1.979,1.579-3.928,2.345-5.824l10.538-26.187s23.448-8.882,25.884-3.125c2.006,4.745.371,9.394-5.927,20.072" transform="translate(-2624.753 18256.734)"/><path class="v" d="M3288.446-266.19s-.549,8.835-2.257,8.963c-.229.017-8.672.017-8.672.017l-10.778-.064a3.494,3.494,0,0,1,3.22-3.145c3.151-.549,8.424-2.764,10.334-6.928,2.006-4.38,8.153,1.156,8.153,1.156" transform="translate(-2557.913 17760.744)"/><path class="v" d="M3554.438-423.559s7.448,4.786,6.725,6.34c-.1.207-4.212,7.579-4.212,7.579l-5.31,9.381a3.5,3.5,0,0,1-1.177-4.345c1.057-3.019,1.7-8.7-1.011-12.4-2.845-3.887,4.985-6.555,4.985-6.555" transform="translate(-2799.109 17892.869)"/><path class="x" d="M3323.96-843.251s-29.431,18.334-32.717,30.653,39.152,38.6,39.152,38.6,4.655-4.106,5.474-7.117c0,0-19.181-22.981-23.343-28.132-2.555-3.164,37.785-10.952,42.712-18.618s3.165-14.116,3.165-14.116l-34.443-1.272" transform="translate(-2578.71 18251.717)"/><path class="y" d="M3532.951-680.865h-60.237a2.2,2.2,0,0,0-2.19,2.19v12.048a2.2,2.2,0,0,0,2.19,2.19h60.237a2.2,2.2,0,0,0,2.19-2.19v-12.048a2.2,2.2,0,0,0-2.19-2.19" transform="translate(-2732.156 18112.871)"/><path class="u" d="M3585.421-1375.53a16.6,16.6,0,0,0-4.484,4.063c7.051,1.825,18.74-4.711,18.74-4.711a17.291,17.291,0,0,1-6.22-9.75q-.128-.507-.23-1.04a21.267,21.267,0,0,1-.383-3.669l-3.237,2.9-5.387,4.827a46.134,46.134,0,0,0,.8,5.445c.118.6.251,1.247.405,1.933" transform="translate(-2826.562 18719.748)"/><path class="z" d="M3547.613-1273.606c-1.009,13.585.69,34.236-.456,37.814-.989,3.085-12.626,1.258-17.122.228-1.664-.381-3.68-.926-5.762-1.569-5.809-1.8-12.137-4.367-12.817-6.275a1.558,1.558,0,0,1-.062-.218,1.772,1.772,0,0,1,.011-.8c.226-.97,1.1-2.022,1.2-4.428.115-2.687.1-5.849.2-9.251,0-.384.009-.8.05-1.183l0-.139c0-.074,0-.145.006-.219.1-3.793.3-7.782.526-11.737.146-2.486.315-4.945.51-7.3a97.489,97.489,0,0,1,2.094-14.916,23.961,23.961,0,0,1,7.695-11.88l2.144-1.838a12.4,12.4,0,0,0,7.776-1.036c2.768-1.314,3.725-2.256,4.206-1.9,6.394,4.931,10.99,20.045,9.8,36.65" transform="translate(-2767.065 18651.084)"/><path class="v" d="M3524.737-996.682c-5.808-1.8-12.137-4.367-12.815-6.274a1.349,1.349,0,0,1-.064-.218q.006-.4.011-.8c.229-.97,1.1-2.022,1.2-4.428.114-2.687.1-5.849.2-9.251a11.783,11.783,0,0,1,.053-1.183l0-.139c0-.074,0-.145,0-.219l21.939-9.949s1.264,17.683-10.531,32.462" transform="translate(-2767.497 18410.662)"/><path class="o" d="M3603.578-1365.8a46.029,46.029,0,0,0,.8,5.445c5.259-1.7,7.645-6.448,8.441-8.464.226-.568.325-.92.325-.92l-.555-.12-3.621-.767-5.387,4.827" transform="translate(-2845.92 18702.637)"/><path class="u" d="M3572.791-1451s11.553,1.3,12.255-5.9,2.663-11.9-4.684-13.032-9.05,1.475-9.87,3.823-.69,14.588,2.3,15.112" transform="translate(-2817.261 18787.785)"/><path d="M3581.8-1483.676a11.872,11.872,0,0,0-11.25-10.56c-7.2-.678-3.187-6.879-2.42-7.867,0,0,5.521.756,11.176,1.691,11.876,1.962,3.659,15.245,2.494,16.735" transform="translate(-2814.064 18815.055)"/><path class="aa" d="M3230.582-1052.141l-1.011.329-8.605-26.483,1.011-.329,8.606,26.483" transform="translate(-2518.775 18452.969)"/><path class="aa" d="M3309.273-910.038l-29.214.624.038,1.747,29.213-.622-.037-1.749" transform="translate(-2569.302 18308.82)"/><path class="u" d="M3361.677-920.984s-4.532,1.716-7.6,1.15-8.01,1.471-8.712,2.644-.354,1.568,1.156,1.778,6.952,1.852,10.227.189a27.406,27.406,0,0,1,7.724-2.2l-2.8-3.559" transform="translate(-2624.845 18318.184)"/><path class="z" d="M3475.585-1257.24s-1.109,37.843-9.421,42.142c-4.1,2.122-22.617,7.956-28.176,8.951,0,0-1.494-.961-1.662-5.526,0,0,19.026-9.483,21.4-13.755,3.541-6.359-5.273-23.789-.624-29.906s13.247-9.481,18.481-1.906" transform="translate(-2702.914 18609.424)"/></g></svg>