<svg xmlns="http://www.w3.org/2000/svg" xmlns:xlink="http://www.w3.org/1999/xlink" width="649.16" height="512.414" viewBox="0 0 649.16 512.414"><defs><style>.a,.e{fill:#fff;}.a{stroke:#707070;}.b{fill:#13b59c;opacity:0.05;}.c{clip-path:url(#a);}.d{fill:#fcd088;}.f{fill:#141928;}.g{fill:#16203d;}.h{fill:#fab953;}.i{fill:#1f1f1f;}.j{fill:#302015;}.k{fill:#241a13;}.l{fill:#c81e25;}.m{fill:#e5e5e4;}.n{fill:#1a293d;}.o{fill:#244162;}.p{fill:#1db3d6;}.q{fill:#bef3ff;}.r{fill:#16839d;}.s{fill:#a8d29f;}.t{fill:#1cb59c;}.u{fill:#fab90b;}.v{fill:#09834b;opacity:0.2;}.w{fill:#f89f0e;}</style><clipPath id="a"><rect class="a" width="456" height="508" transform="translate(148.284 671.182)"/></clipPath></defs><g transform="translate(-152.421 -708)"><path class="b" d="M630.56-78.127c70.076-53.291,101.284-201.063-12.5-273.525-75.329-47.964-122.178-20.6-206.921-52.332C307.687-442.709,292.267-559.71,166.429-502.139,99.763-471.649,53.547-385.713,45.417-288.045,37.449-192.4,71.343-126.769,140.607-81.861c162.654,6.922,325.632,5.667,489.953,3.734" transform="translate(108.146 1297.02)"/><g transform="translate(26.716 36.818)"><g class="c"><path class="d" d="M798.049-651.57c-2.269-.565-4.785-2.684-7.419-3.11,1-6.4-5.034-10.192-.122-13.781,3.693-2.7,6.434-9.672,8.59-9.359,3.864.56,4.434-2.074,11.938,1.078,4.955,2.083,4.666,1.269,3.758,10.171-.5,4.843-.883,12.125-3.423,17.855-3.263-1.562-9.774-2.233-13.321-2.854" transform="translate(-265.332 1458.725)"/><path d="M672.221-480.829l56.7-57.715,12.11-90.183s.042-.289.117-.809c-2.942-.259-22.809-3.565-22.809-3.565L694.49-546.893l-59.1,38.389s21.435,30.236,36.832,27.675" transform="translate(-194.606 1437.846)"/><path class="e" d="M789.617-641.766l23.043,6.989-2.154,7.1-23.04-6.989,2.151-7.1" transform="translate(-264.829 1441.846)"/><path class="f" d="M638.8-123.9l35.224,6.57-24.6,59.081Z" transform="translate(-196.18 1202.721)"/><path class="g" d="M461.8-107.241l-.581.812-56.4,129.124-70.68,33.62c4.035,4.5,4.229,6.081,8.141,10.481l90.665-21.332L509.441-57.777,591.6-42.5s.384,89.7-1.811,104.7c1.041,5.453,21.251,9.877,29.347,1.588l15.538-140.55s-133.692-44.343-132.961-45.053c-14.594,1.255-4.219-6.841-39.908,14.578" transform="translate(-55.506 1201.986)"/><path class="f" d="M613.988-120.208s2.449,36.288,2.284,37-2.157,26.654-2.157,26.654-30-14.679-33.108-23.149-3.7-14.641-2.784-14.728,15.173-.52,17.025-.466,17.714-21.52,18.739-25.307" transform="translate(-168.029 1201.014)"/><path class="e" d="M567.48-396.011,537.5-388.461c18.146,20.712,24.08,54.2,31.759,80.929,4.188,15.176,7.106,30.052,10.161,45.5,2.691,12.306,10.589,13.139,10.589,13.139l36.824,6.418c2.7-2.708,9.493-27.121,3.675-39.792,0,0-6.653-6.944-2-44.36.571-4.6-2.24-5.668-1.954-10.337-22.043-61.559-23.234-53.7-59.07-59.043" transform="translate(-149.405 1328.367)"/><path class="e" d="M544.512-388.548l40.33,21.9-.4-11.124s25.208,63.22,25.426,62.845S592.7-376,592.7-376l.517-3.763,7.024,1.3.444-17.791-4.559-2.789-8.388,13.313s-9.459,5.268-9.95,5.337-33.276-8.148-33.276-8.148" transform="translate(-152.644 1329.77)"/><path class="h" d="M559.952-443.132l-12.825,3.7s-6.432,20.232-7.893,24.372,48.206,8.051,48.206,8.051-.159-2.715,5.39-9.5c0,0-5.7-7.3-5.4-8.544,1.8-7.538-27.475-18.079-27.475-18.079" transform="translate(-150.192 1350.125)"/><path d="M569.174-327.211c-5.314-29.428-23.383-47.608-59.539-64.2L489.811-370.36s35.276,96.366,36.247,112.808c1.5,25.451-5.39,30.652-5.39,30.652,6.059,19.135,35.676,40.281,48.584,36.631.6-8.825,10.6-77.794-.079-136.941" transform="translate(-127.385 1326.244)"/><path class="f" d="M564-340.013c-1.03,4.8-1.179,9.664-4.784,13.623,6.1-2.042,15.2-.3,16.754,5.019,1.021,3.051-6.813,7.9-6.681,8.465,13.748,18.806,26.917,39.163,36.547,60.935-.422-18.066-1.764-36.067-4.617-51.87-2.66-14.738-8.521-26.655-18.249-36.964a27.23,27.23,0,0,1-18.971.794" transform="translate(-159.435 1302.877)"/><path class="i" d="M524.449-391.832l-2.336,5.42c21.831,15.414,15.276,30.734,15.276,30.734l20.981,3.272-11.274,11.2s32.015,24.611,41.381,60.884c0,0-1.878-32.835-4.491-47.306-5.313-29.428-23.381-47.607-59.537-64.2" transform="translate(-142.301 1326.438)"/><path d="M638.634-398.7l-3.245,6.976c20.071,33.66,35.234,87.4,36.008,129.022,17.644-46.211-3.157-128.777-3.157-128.777L638.634-398.7" transform="translate(-194.606 1329.609)"/><path class="f" d="M687.523-316.723c.547-4.629-3.357-17.519-3.357-17.519s-2.549-2.693-7.6-7.1c5.108-3.5,2.2-6.007,6.545-10.48-3.659.932-10.449-6.319-13.548-8.133-5.618,3.461-1.347,8.011-7.121,11.571,13.13,24.9,22.811,38.434,19.465,74.116,3.32-7.609,3.472-28.873,5.616-42.452" transform="translate(-207.098 1311.721)"/><path class="i" d="M670.5-300.4c2.854-21.664-.143-35.276,6.116-55.951-5.738,1.374-12.619-3.484-17.161-7.248,5.687-3.435,5.433-5.283,10.1-10.011-13.075-2.1-26.2-13.611-30.917-25.089l-3.245,6.976c18.508,31.037,27.115,64.206,34.037,101.21-.627-3.353.94-6.713,1.071-9.889" transform="translate(-194.606 1329.609)"/><path class="d" d="M535.292-520.755s2.867-14.785,17.137-18.29,18.62-1.426,22.725,8.265,2.809,14.987,9.654,16.09,14.333,1.908,10.335,8.406a29.636,29.636,0,0,1-6.858,7.126s6.082,6.9,12.368,10.679c3.718,5.844.525,14.4-20.724,18.985-15.823,3.415-23.689-2.121-24.955-4.776a40.945,40.945,0,0,1-2.853-7.982c-.938-3.051-16.829-38.5-16.829-38.5" transform="translate(-148.386 1395.15)"/><path class="j" d="M518.559-530.091s16.11,14.858,14.969,22.26-2.811,18.574-2.811,18.574-5.319,9.38-22.266-3.144c-17.509-14.278-14.922-19.554-16.1-23.215s-.476-19.022,2.857-24.888,11.236-14.955,26.841-22.158,31.471-8.448,34.89.138c2.815,7.067-6.607,27.242-38.38,32.433" transform="translate(-128.117 1408.025)"/><path class="k" d="M557.446-567.363c3.424,7.728-23.255,7.706-38.947,18.98-6.669,4.79-11.183,11.149-11.305,17.727s9.451,3.312,9.451,3.312-6.793,2.815-8.865,4.612,3.1,11.972,6.117,16.218c2.621,3.686,11.866,16.854,24.339,16.286.5-3.3,1.7-11.317,2.586-17.067,1.141-7.4-14.969-22.26-14.969-22.26,31.772-5.191,41.194-25.366,38.38-32.433-1.106-2.775-3.51-4.522-6.785-5.374" transform="translate(-135.411 1407.49)"/><path class="d" d="M552.584-465.3a11.292,11.292,0,0,1-3.637,15.549,11.291,11.291,0,0,1-15.549-3.638,11.291,11.291,0,0,1,3.637-15.547,11.293,11.293,0,0,1,15.549,3.636" transform="translate(-146.727 1362.826)"/><path class="h" d="M556.115-446.405s-4.122,1.029-3.975-3.468c.072-2.271,3.115-3.35,3.115-3.35s-4.553-3.311-6.712-.487a4.755,4.755,0,0,0-.29,5.509s-4.156-3.761-.258-7.261,8.285,2.479,8.285,2.479-4.866,1.941-2.36,5.108a3.5,3.5,0,0,0,2.2,1.47" transform="translate(-153.481 1356.326)"/><path class="h" d="M628.564-468.1s-4.359,1.2-4.785-2.063a13.766,13.766,0,0,1,.032-3.591s-3.359,9.065,4.753,5.654" transform="translate(-188.942 1364.268)"/><path d="M259.177-442.129l14.4-14.431,63.42,49.82,47.687,4.847c.065-.251,14.177,45.243,14.177,45.243l-85.391-26.939-54.291-58.539" transform="translate(-20.889 1356.326)"/><path class="f" d="M527.993-256.171c-.042-.457-5.382-25.838-5.382-25.838l2.773-14.849-6.694,13.951,9.3,26.736" transform="translate(-140.72 1282.582)"/><path class="e" d="M675.733-261.2l-1.169-34.95s11.389,25.982,13.491,35.162,6.332,22.926,7.477,28.506.583,17.475-1.463,21.821-9.442,2.589-9.442,2.589l-7.78-38.166s-1.39-14.629-1.115-14.963" transform="translate(-212.695 1282.256)"/><path class="e" d="M664.446-325.186s17.652,51.835,18.508,54.368,6.9,20.872,6.9,20.872-8.158-32.44-10.227-36.4-15.186-38.845-15.186-38.845" transform="translate(-208.023 1295.662)"/><path class="l" d="M606.916-376.192l11.155,1.236s19.194,100.171,59.526,107.1c9.056-1.783,12.48-4.569,12.48-4.569l-4.09-10.683s-23.452-.847-36.511-21.749c-18.224-29.171-28.523-71.83-28.523-71.83L625.019-385l-10.14.813-7.964,8" transform="translate(-181.458 1323.285)"/><path class="m" d="M537.209-401.22l47.612,8.491,3.907-9.48,4.817,2.376.094,17.392L585-391.694l-10.6,14.9-38.98-18.013,1.789-6.412" transform="translate(-148.445 1331.229)"/><path class="m" d="M600.492-391.282l-31.133-1.791c3.18,5.586,4.59,5.758,7.256,11.435l13.456,6.289,10.6-14.9,8.641,9.254.111-14.237c-.111-.81-4.01-3.845-4.01-3.845l-4.919,7.793" transform="translate(-164.116 1329.783)"/><path class="d" d="M249.975-461.852c-1.422,1.717-4.287,3.008-5.74,5.1-2.708-1.669-7.785-7.258-12.25-10.971-5.1-4.242,2.145-13.423,7.992-16,5.9-2.6,2.068,3.583,7.226,1.549,4.325-1.705,8.684,9.089,9.709,12.463a39.234,39.234,0,0,0-6.937,7.861" transform="translate(-7.534 1369.17)"/><path class="e" d="M267.607-462.535l-14.652,15.59,5.436,5.043,14.652-15.588-5.436-5.044" transform="translate(-18.016 1359.086)"/><path class="n" d="M154.054-531.282a2.48,2.48,0,0,1-3.506-.009l-3.087-3.188a2.48,2.48,0,0,1,0-3.5l.006,0a2.478,2.478,0,0,1,3.506.007l3.088,3.187a2.481,2.481,0,0,1,0,3.5l0,0" transform="translate(31.03 1394.256)"/><path class="o" d="M124.433-561.1h0a19.265,19.265,0,0,1-13.739,5.685,19.4,19.4,0,0,1-19.343-19.411,19.256,19.256,0,0,1,5.681-13.666,19.261,19.261,0,0,1,13.731-5.682,19.266,19.266,0,0,1,13.69,5.708,19.254,19.254,0,0,1,5.658,13.709,19.242,19.242,0,0,1-5.678,13.657" transform="translate(56.606 1419.869)"/><path class="e" d="M104.791-580.73a14.338,14.338,0,0,0-4.229,10.168,14.432,14.432,0,0,0,14.394,14.444,14.338,14.338,0,0,0,10.227-4.233,14.322,14.322,0,0,0,4.226-10.161,14.323,14.323,0,0,0-4.214-10.2,14.329,14.329,0,0,0-10.187-4.249,14.33,14.33,0,0,0-10.217,4.231" transform="translate(52.353 1415.615)"/><path class="n" d="M177.592-507.73l-.009.008a4.96,4.96,0,0,1-7.012-.015l-15.119-15.191a4.961,4.961,0,0,1,.008-7l.009-.009a4.957,4.957,0,0,1,7.012.016L177.6-514.734a4.963,4.963,0,0,1-.012,7" transform="translate(27.673 1390.877)"/><path class="p" d="M444.275-771.718a3.976,3.976,0,0,1,3.975-3.974h53.157a3.979,3.979,0,0,1,3.974,3.974v34.776a3.976,3.976,0,0,1-3.974,3.976H448.25a3.974,3.974,0,0,1-3.975-3.976v-34.776" transform="translate(-106.358 1503.688)"/><path class="q" d="M465.518-735.639l-20.751,18.5a3.976,3.976,0,0,0,3.71,2.571h53.157a3.96,3.96,0,0,0,3.7-2.571l-20.976-18.708" transform="translate(-106.586 1485.287)"/><path class="r" d="M444.767-772.874l30.287,29.608,30.283-29.608a3.993,3.993,0,0,0-3.7-2.819H448.477a4.008,4.008,0,0,0-3.71,2.819" transform="translate(-106.586 1503.688)"/><path class="q" d="M444.767-773.121l30.287,27,30.283-27a3.961,3.961,0,0,0-3.7-2.571H448.477a3.977,3.977,0,0,0-3.71,2.571" transform="translate(-106.586 1503.688)"/><path class="o" d="M220.105-621.256a11.232,11.232,0,0,1-11.23-11.229,11.229,11.229,0,0,1,11.23-11.229,11.228,11.228,0,0,1,11.227,11.229,11.23,11.23,0,0,1-11.227,11.229Zm25.953-15.76H242.7a24.094,24.094,0,0,0-.977-3.441l2.807-1.619a1.419,1.419,0,0,0,.517-1.928l-2.815-4.872a1.412,1.412,0,0,0-1.922-.515l-2.92,1.683a22.849,22.849,0,0,0-2.553-2.487l1.622-2.812a1.411,1.411,0,0,0-.515-1.926l-4.874-2.814a1.411,1.411,0,0,0-1.92.517l-1.681,2.914a22.662,22.662,0,0,0-3.463-.877v-3.25a1.408,1.408,0,0,0-1.407-1.409H216.98a1.411,1.411,0,0,0-1.414,1.409v3.362a23.353,23.353,0,0,0-3.435.97l-1.615-2.808a1.417,1.417,0,0,0-1.932-.518l-4.873,2.819a1.406,1.406,0,0,0-.512,1.92l1.684,2.918a22.572,22.572,0,0,0-2.487,2.551l-2.811-1.623a1.414,1.414,0,0,0-1.925.52l-2.819,4.872a1.406,1.406,0,0,0,.517,1.921l2.913,1.682a22.729,22.729,0,0,0-.873,3.458h-3.247a1.413,1.413,0,0,0-1.41,1.412v5.624a1.406,1.406,0,0,0,1.41,1.406h3.362a22.53,22.53,0,0,0,.967,3.442l-2.81,1.622a1.411,1.411,0,0,0-.515,1.922l2.812,4.871a1.414,1.414,0,0,0,1.925.52l2.919-1.685a22.674,22.674,0,0,0,2.553,2.491l-1.623,2.814a1.4,1.4,0,0,0,.512,1.92l4.879,2.816a1.405,1.405,0,0,0,1.917-.515l1.686-2.914a22.688,22.688,0,0,0,3.46.87v3.255a1.4,1.4,0,0,0,1.4,1.4l5.633,0a1.409,1.409,0,0,0,1.408-1.409v-3.36a24.106,24.106,0,0,0,3.434-.969l1.625,2.8a1.4,1.4,0,0,0,1.918.517l4.879-2.816a1.411,1.411,0,0,0,.511-1.925l-1.684-2.914a22.638,22.638,0,0,0,2.492-2.553l2.814,1.625a1.407,1.407,0,0,0,1.922-.516l2.813-4.875a1.407,1.407,0,0,0-.513-1.92l-2.915-1.686a22.993,22.993,0,0,0,.875-3.454h3.249a1.409,1.409,0,0,0,1.406-1.412v-5.629a1.4,1.4,0,0,0-1.406-1.4" transform="translate(9.789 1450.197)"/><path class="n" d="M228.328-609.659a14.6,14.6,0,0,1-14.6-14.6,14.6,14.6,0,0,1,14.6-14.6,14.6,14.6,0,0,1,14.6,14.6A14.6,14.6,0,0,1,228.328-609.659Zm0-32.377a17.776,17.776,0,0,0-17.776,17.78,17.779,17.779,0,0,0,17.776,17.776,17.782,17.782,0,0,0,17.781-17.776,17.78,17.78,0,0,0-17.781-17.78" transform="translate(1.565 1441.971)"/><path class="n" d="M243.157-642.036c-.166,0-.325,0-.488.009v3.181c.163-.008.322-.016.491-.016a14.6,14.6,0,0,1,14.6,14.6,14.6,14.6,0,0,1-14.6,14.6c-.169,0-.328-.007-.491-.014v3.182c.163,0,.322.012.488.012a17.783,17.783,0,0,0,17.781-17.776,17.78,17.78,0,0,0-17.781-17.78" transform="translate(-13.266 1441.971)"/><path class="s" d="M627.411-810.03a29.42,29.42,0,0,0-29.388,29.384,29.418,29.418,0,0,0,29.388,29.384,29.415,29.415,0,0,0,29.382-29.384,29.418,29.418,0,0,0-29.382-29.384" transform="translate(-177.353 1519.543)"/><path class="e" d="M700.545-740.6c-.388.009-.891.192-.9.323s-.543.372-.719.444a2.3,2.3,0,0,0-.593.8c-.075.18-.51.126-.672.2s-.492.339-.493.5-.091.142-.2-.042l-.211.224-.25.278a2.287,2.287,0,0,1-.788,1.071c-.163.044-.192.838-.192,1.157a1.47,1.47,0,0,0,.276.876l.034.254.054.505a.918.918,0,0,0,.295.808,4.2,4.2,0,0,0,1.092-.2,1.953,1.953,0,0,0,.395-.161,29.3,29.3,0,0,0,3.026-7.018l-.155-.015" transform="translate(-222.376 1487.48)"/><path class="e" d="M607.177-764.793c-.04.079.483.619.689.8a5.207,5.207,0,0,1,.722,1.356,2.2,2.2,0,0,1,.009.875c-.026.111.1.355.121.458a7.16,7.16,0,0,0-.1,1.313c.075.349-.408,1.433-.4,1.972s.253,1.241.354,1.188.131.489-.034.555-.354.495-.263.517-.006.445.022.615.166,1.289.194,1.566a8.508,8.508,0,0,0,.515,1.189c.082.231.168.667.2.734a.9.9,0,0,0,.077.138,2.6,2.6,0,0,1,.419.192,2.626,2.626,0,0,0,.931-.016c.2-.042.016-.23-.077-.332s-.174-.6-.281-.649a1.127,1.127,0,0,1-.058-.822c.093-.141.467-.365.512-.482s.049-.67-.051-.745.028-.744-.046-1.076.576-.634.614-.9.743-.548.9-.679a1.667,1.667,0,0,0,.223-1.05c-.078-.16.26-.291.413-.291s.316-.11.377-.11.237-.335.332-.411.3-.873.472-1a1.369,1.369,0,0,0,.321-.753,2.307,2.307,0,0,1,.357-.686,3.791,3.791,0,0,1,.865-.476,5.225,5.225,0,0,0,.342-1.49c.047-.38.244-.889.259-1.015s.225-.231.263-.273.2-.524.3-.635a3.2,3.2,0,0,0,.475-.677,4.182,4.182,0,0,1,.124-.589l0-.258,0-.413c-.115-.32-.469-.719-.56-.631s-.5-.282-.708-.361a3.944,3.944,0,0,0-.856-.143c-.134,0-.588-.37-.791-.436s-.723-.164-.818-.223-.222-.834-.64-1.086a4.48,4.48,0,0,1-1.234-1.059c-.08-.215-.881-.67-1.131-.805a1,1,0,0,0-.67-.121c-.05.047-.359-.418-.517-.552s-.642-.24-.663-.121-.342.055-.418-.045-.321.041-.438.079-.516.647-.7.8-.405-.136-.525-.189a1.334,1.334,0,0,0-.709.181c-.125.09-.417-.646-.349-.985s-.3-1.011-.59-1.028-.373-.724-.317-.985-.515-.424-.66-.441-.5.348-.561.523-1.364-.239-1.208-1.018a3.551,3.551,0,0,1,.921-1.683,2.329,2.329,0,0,1,1.173-.036.306.306,0,0,0,.384-.05,2.477,2.477,0,0,1,.917.091c.2.083.494.871.7.967s.289-.507.323-.655a1.507,1.507,0,0,0-.153-.627,2.152,2.152,0,0,1,.659-1.222,1.5,1.5,0,0,0,.628-.787c-.029-.093.254-.168.329-.209s-.011-.81.114-.977a3.718,3.718,0,0,1,.913-.6.722.722,0,0,0,.263-.652c-.069-.086.491-.561.78-.655s.538.168.468.207c.058-.031.457-.237.63-.351.2-.131,0-.493-.128-.6s-.05-.523.1-.561.291-.4.249-.479.639.063.9-.13.074.461-.116.723a.3.3,0,0,0,.258.461c.122-.051.251.139.278.213s.286-.076.457,0,.271-.234.287-.376-.411-.44-.478-.61a10.854,10.854,0,0,1-.1-1.371c-.009-.2-.284-.535-.371-.475s-.268-.53-.41-.658a.737.737,0,0,1-.169-.5c.007-.095-.481-.6-.6-.841s-.28-.187-.291-.08-.349.123-.488.11-.256-.552-.256-.756-.628-.238-.733-.4-.512-.085-.579-.2a.649.649,0,0,0-.5-.176c-.074.042-.04,1.5-.108,1.9s-.4.74-.527.731-.048.282.037.256-.236.43-.279.73-.347-.014-.4-.285-.346-.639-.4-.545-.261-.112-.352-.054-.649-.326-.875-.45-.354-.817-.485-.878-.021-.145-.025-.25.438-.511.573-.671a8.192,8.192,0,0,1,.812-.928.838.838,0,0,0,.309-.567,5.141,5.141,0,0,1,1.06-.414c.231-.079.431-.728.463-.913a.774.774,0,0,0-.253-.586c-.108-.046.324-.062.466.011s.587-.132.762-.039.526.3.783.464l-.056.476-.1.807c-.678.281-.871.765-.632.755a5.558,5.558,0,0,1,1.621.686c.3.218.4-.316.49-.5a1.318,1.318,0,0,0-.012-.8c-.073-.1.353-.067.474.049s.258-.12.352-.161.136-.484.189-.573-.2-.181-.211-.29-.494-.324-.651-.4-.194-.41-.118-.468-.051-.484-.131-.625-.584-.256-.754-.256-.342-.393-.439-.448a2.563,2.563,0,0,0-.909-.08c-.163.047-.457-.461-.731-.307s-.549-.182-.672-.249-.76.616-.754,1.1a1.327,1.327,0,0,0,.347.958c.1.014-.023.448-.133.571s-.378-.13-.276-.239-.277-.612-.406-.815a1.616,1.616,0,0,0-.648-.37c-.133.141-.258.288-.386.434a1.08,1.08,0,0,1,.053.573c-.1.293-.341.336-.356.21-.006-.056-.131-.1-.275-.118a29.256,29.256,0,0,0-6.607,15.36,1.8,1.8,0,0,1,.344.49c.08.259.529.428.614.482s.112-.5.051-.637.109-.226.106-.121a4.011,4.011,0,0,0,.563.759c.141.172.285,1.293.419,1.534a5.319,5.319,0,0,0,1.844.826,2.254,2.254,0,0,1,1.023.689c.081.134.633.2.753.254s.4.432.521.51a.642.642,0,0,1,.212.362c0,.059.731.335.909.531a.389.389,0,0,0,.524.058c.056-.082.2.389.275.551a1.041,1.041,0,0,1,.034.625,7.854,7.854,0,0,1-.285.945,3.849,3.849,0,0,0-.329,1.426,1.687,1.687,0,0,0,.549.713.171.171,0,0,1-.03.309c-.118.014-.065,1.035.21,1.186a1.029,1.029,0,0,1,.466.68" transform="translate(-177.529 1512.432)"/><path class="e" d="M621.126-772.453h0" transform="translate(-188.021 1502.191)"/><path class="e" d="M616.431-798.949c.352-.059.939-.156.98-.256a.609.609,0,0,0-.035-.407l.17.007c.133,0,.357-.733.5-.9a7.391,7.391,0,0,1,1.137-.54,8.337,8.337,0,0,1,.772-.566c.161-.049.4-.425.359-.5s.547-.426.767-.519.332-.351.251-.362c-.053-.007-1.279.636-2.4,1.272a29.515,29.515,0,0,0-3.616,2.9c.351-.026.9-.091,1.123-.128" transform="translate(-185.333 1516.293)"/><path class="e" d="M648.226-760a10.291,10.291,0,0,0,1.224-1.365,3.212,3.212,0,0,0,.41-1.071,1.022,1.022,0,0,1,.48-.443c.118-.032.5-1.619.834-1.964a5.808,5.808,0,0,0,.685-2.625,8.251,8.251,0,0,1,.293-2.025,2.635,2.635,0,0,1,.632-.868,19.336,19.336,0,0,0,1.2-1.725,3.784,3.784,0,0,0,.456-1.59c-.049-.221-.61-.375-.718-.267a1.886,1.886,0,0,1-.8.2c-.169,0-.558-.906-.8-1.093s-.458-1.224-.6-1.421a9.915,9.915,0,0,0-.648-.808c-.122-.113-.143-.665-.169-.816s.233.1.278.317a10.691,10.691,0,0,0,.861,1.4c.193.3.7,1.247.829,1.544s1.259.146,1.626-.026a2.384,2.384,0,0,0,.84-.568c.017-.1.6-.371.764-.5s.308-.809.413-.917-.084-.758-.209-.952a1.028,1.028,0,0,0-.824-.271c-.119.076-.372-.436-.462-.621s-.538-.418-.586-.546.12-.333.192-.376a3.732,3.732,0,0,1,1.136.824,5.977,5.977,0,0,1,.553.911,1.2,1.2,0,0,0,.843.031.229.229,0,0,1,.369.06l.205-.036.716-.111a1.43,1.43,0,0,1,.429.758.7.7,0,0,0,.345.4c.139.034.239.5.284.618s.449.817.533,1.111a7.1,7.1,0,0,0,.515,1.025,2.463,2.463,0,0,1,.151.724.529.529,0,0,0,.426.35c.162-.011.491-1.037.566-1.418a1.079,1.079,0,0,1,.412-.7c.077,0,.136-.215.136-.3s.416-.071.454-.174.157-.783.3-.885a6.353,6.353,0,0,1,.858-.512c.183-.063.654.341.76.533a1.652,1.652,0,0,1,.159.749c-.039.079.248.495.5.488s.329.317.336.434.341.454.405.6a1.315,1.315,0,0,1,0,.652,2.274,2.274,0,0,0,.033.782,7.6,7.6,0,0,0,1.107,1.167c.291.237.425-.483.278-.707s-.652-.745-.77-.9a1.877,1.877,0,0,1-.093-.956c.041-.176.438.1.6.222a1.267,1.267,0,0,1,.385.5c.006.093,1.038-.484,1.074-1.113a6.43,6.43,0,0,1,.414-1.5c.034-.167-.1-.393-.189-.4s.154-.479.443-.473.989-.767,1.153-1.075a2.45,2.45,0,0,1,.534-.6,5.184,5.184,0,0,0,.311-1.066,3.205,3.205,0,0,0-.194-.928,3.1,3.1,0,0,0-.339-.628,1.342,1.342,0,0,1-.086-.614c.039-.076.3-.161.328-.231s.329-.39.3-.531.186.182.324.3.284.865.454.947.856-.794.769-1.361a1.756,1.756,0,0,1,.365-1.353,3.644,3.644,0,0,0,.665-.835,29.446,29.446,0,0,0-7.237-11.406l-.111,0-.253-.055c-.421-.089-.665-.54-.594-.644a.284.284,0,0,0,0-.2q-.35-.319-.721-.624c-.2-.006-.407,0-.53-.006a2.272,2.272,0,0,1-.9-.286c-.1-.1-.429.087-.449.271s-.6.265-.65.4a.308.308,0,0,1-.409.07c-.058-.077-.592.188-.858.227a4.57,4.57,0,0,0-.878.3,1.4,1.4,0,0,0-.446.442c-.045.115-.386.3-.5.348s-.087.54.053.611-.261-.06-.438-.152-.375.212-.431.316-.22-.062-.213-.21-.438-.268-.5-.149-.368-.039-.5-.106-.681.509-.886.716a2.442,2.442,0,0,1-1.371.289c-.184-.076-.363.435-.206.469s-.4-.025-.7,0a4.964,4.964,0,0,0-1.4.54.227.227,0,0,1-.382-.155c0-.121-.337-.233-.438-.267s-.3.662-.471.8-.388-.543-.8-.654-1.061-.512-1.245-.558a2.5,2.5,0,0,1-.654-.546,1.847,1.847,0,0,0-.8-.2,2.646,2.646,0,0,0-.865.437c-.15.124-.369.1-.441.144s-.695.651-.933.84a7.456,7.456,0,0,0-.794,1.2.564.564,0,0,1-.418.236c-.078,0-.146.222-.146.3s-.71.45-.785.774a7.522,7.522,0,0,0,.071,1.322c0,.261.261.781.459.789s.095.446.043.566.124.258.118.362-.5.251-.649.309a1.143,1.143,0,0,0-.435.53c-.027.111-.5.191-.657.342a3.237,3.237,0,0,1,.133-.342.565.565,0,0,0-.108-.536c-.075-.062-.109-.916-.23-1.1a3.913,3.913,0,0,0-.492-.555c-.075-.058.051-.283.094-.38s-.4-.149-.521-.079-.186.916-.235,1.147a.757.757,0,0,0,.291.6c.072.017.052.434-.1.448s-.3.622-.217.76-.11.412-.2.476.594.025.908.018.558.131.526.157-.6.11-.7.245-.487.392-.56.5.128.332.29.321.347.563.475.669.079.4.024.486-.822-.056-1.112.015-.659.687-.685.919a5.779,5.779,0,0,0,.085,1.084c.037.184.646.3.769.391s.71,0,.83.057.512-.589.591-.889.7-.853.826-1.059.8-.18.964-.287.072.509.151.845.719.295.625-.021.065-.455.09-.34.642.365.759.544.083.556-.053.553-.143.414,0,.46.338-.473.494-.55.28-.4.208-.424.131-.314.22-.22a3.693,3.693,0,0,0-.592-.892c-.261-.263-.077-.146.411.26l.339.475c.067.085.151.344.211.438l.079.14a3.226,3.226,0,0,1,.125.743.533.533,0,0,0,.426.352c.158-.011.283.077.25.083s.106.319.266.327.23-.405.066-.415-.136-.606-.156-.864.116-.474.17-.474,0,.534,0,.657a1.678,1.678,0,0,0,.146.539l.164.125.372.286c.531-.157,1.245-.036,1.219.073s.393.134.419-.04.045.005.045.126-.351.594-.408.815-1.287.07-1.815.029-1.309.141-1.368.3-.883-.363-1.263-.521-.674-.736-.752-.811.065-.262.027-.376-.9-.139-1.149-.044-1.547.229-1.852.363a1.648,1.648,0,0,1-.911-.034c-.143-.024-.487.4-.659.474a2.309,2.309,0,0,0-.491,1.333l-.237.458-.151.292a6.77,6.77,0,0,0-1.039,1.628,10.445,10.445,0,0,0-.249,2.306,7.378,7.378,0,0,0,.586,1.945,4.674,4.674,0,0,0,1.188,1.15,4.212,4.212,0,0,0,1.409.179.868.868,0,0,0,.713-.6l.414.042.189.018c.01.233.621.417.771.5a1.308,1.308,0,0,0,.672-.015c.118-.035.252,1.044.166,1.357a6.227,6.227,0,0,0,.3,1.735c.089.329.463,1.229.5,1.554a15.325,15.325,0,0,1-.263,1.775,7.011,7.011,0,0,0,.6,1.792,6.057,6.057,0,0,1,.244,1.32c0,.182.559,1.27.685,1.718s1.535.558,1.91.339" transform="translate(-195.875 1513.924)"/><path class="e" d="M701.4-753.528c.038.078.391-.2.6-.235s.345-.6.179-.641-.376-.481-.5-.535-.353.188-.342.359-.385.243-.461.388-.068.248.013.232.469.351.5.431" transform="translate(-224.824 1494.107)"/><path class="e" d="M700.259-747.137c.106-.04-.012-.6-.232-.647s-.828.74-.713,1.191.244.424.306.329.428.061.535.1.105-.074,0-.24a.838.838,0,0,1,.1-.73" transform="translate(-224.118 1490.801)"/><path class="e" d="M697.02-748.887c.024-.2.063-.827.1-.952s-.342-.484-.527-.55-.776,1.221-1.2,1.45a1.207,1.207,0,0,0-.469,1.191c.115.182,1,.276,1.155.413s.328-.021.421-.044.065-.083.03-.106.309-.387.36-.618.107-.584.133-.784" transform="translate(-222.079 1492.004)"/><path class="e" d="M693.717-743.656a.661.661,0,0,0-.755.2c-.032.127,1.281.336,1.717.454s.708.156.61.083-1.239-.611-1.572-.738" transform="translate(-221.19 1488.912)"/><path class="e" d="M699.03-760.105c.106-.147-.145-.835-.273-.679s-.034.556.006.7.164.129.268-.018" transform="translate(-223.837 1496.813)"/><path class="e" d="M700.283-757.138c.077-.177-.093-.373-.377-.434s-.243.8-.117.906.419-.294.494-.473" transform="translate(-224.299 1495.32)"/><path class="e" d="M703.538-747.311c.342.239,1.1.128,1.125-.331-.336-.22-1.153-.184-1.125.331" transform="translate(-226.074 1490.793)"/><path class="e" d="M702.923-767.219a.478.478,0,0,0-.171.453h-.059c-.114,0-.126.447-.007.525s.405-.35.555-.451a.826.826,0,0,1,.5-.132,1.316,1.316,0,0,0,.588-.176.506.506,0,0,0,.167-.2c-.069-.329-.147-.651-.225-.973-.141.1-.3.216-.375.281-.151.137-.784.547-.969.674" transform="translate(-225.642 1500.215)"/><path class="e" d="M688.768-749.64h0" transform="translate(-219.254 1491.656)"/><path class="e" d="M690.888-747.807a3.546,3.546,0,0,0-.9-1.046l-.143-.233-.154-.258c-.141-.283-.563-.5-.6-.584s-.171.245-.315.151c.077.052.235.164.456.321a20.107,20.107,0,0,1,1.33,2.332c.172.133.451-.4.328-.683" transform="translate(-219.257 1491.797)"/><path class="e" d="M681.421-751.922c-.106.217.563.677.614.57a1.251,1.251,0,0,0-.2-.754c-.118-.115-.3-.033-.41.183" transform="translate(-215.856 1492.818)"/><path class="e" d="M664.794-736.075c.025.228.488.408.619.371a2.546,2.546,0,0,0,.563-.922,4.583,4.583,0,0,0,.093-.726.655.655,0,0,1,.115-.358,1.261,1.261,0,0,0,.186-.518,13.957,13.957,0,0,0-.286-1.679c-.008-.214-.248.11-.309.323s-.664.651-.8.834a1.813,1.813,0,0,0-.228.9,1.35,1.35,0,0,1-.113.644,6.27,6.27,0,0,0,.157,1.126" transform="translate(-208.106 1487.195)"/><path class="e" d="M624.686-717.466h.4c.073-.437-.424-.365-.4,0" transform="translate(-189.664 1476.939)"/><path class="e" d="M634.214-802.857a1.364,1.364,0,0,1-.682-.149,1.729,1.729,0,0,0-.922-.071c-.19.08-.06-.461.2-.521s.041-.432-.24-.433-.974-.1-1.135-.068-.482-.114-.6-.131a11.939,11.939,0,0,1-1.343.23,9.747,9.747,0,0,0-1.569.08c-.211.056-.363.466-.333.611s-.936.145-1.237.147a10.056,10.056,0,0,0-2.349.583c-.424.232-.755.826-.614.839s-.235.347-.461.427-.771.113-.9.24.136.215.187.3.2-.075.347.008a7.314,7.314,0,0,0,.736.167c.129.05-.4.149-.646.167s-.192.5.01.571.722.138.774.055.618.091.874.123.446.662.524.8a2.109,2.109,0,0,1,.075.764c-.02.139.449.4.533.306s.06.22-.127.2-.065.523.164.6.073.408-.059.509-.062.417-.2.531.483,1.183.48,1.736.339,1,.471,1,.586.111.644.229.279-.082.365-.172a4.859,4.859,0,0,0,.411-.588,14.675,14.675,0,0,0,.49-1.46c.041-.118.56-.043.679-.1a5.61,5.61,0,0,0,.555-.408c.1-.079.836-.393,1.037-.538s.541-.774.7-.906-.083-.095-.279-.224a.211.211,0,0,1-.052-.347,2.387,2.387,0,0,1,.859.179c.206.083.6-.2.447-.313s-.07-.1,0-.059.149-.362.073-.44.6-.576.482-1.047.187-.954.369-.959.13-.532-.09-.582-.012-.1.069-.171a1.115,1.115,0,0,0,.14-.636c-.05-.09.333-.192.4-.3a1.863,1.863,0,0,1,.665-.354c.154-.035.238-.447.071-.428" transform="translate(-188.423 1516.863)"/><path class="e" d="M650.523-800.976c-.21-.072-.633.16-.581.291s-.346-.169-.626-.025-.355.635-.228.7.222.452.225.527.544.022.681-.09.119.394-.015.532.049.413.2.435.354.376.509.372.416-.6.476-.821.576-.046.812.025.32-.818.066-.952-.572-.066-.679-.167a.877.877,0,0,0-.4-.216c-.116-.016-.23-.542-.435-.611" transform="translate(-200.905 1515.367)"/><path class="e" d="M654.335-800.817a1.43,1.43,0,0,0,.98-.382c.1-.094-1.15-.349-1.625-.364s-.859.05-.853.144a4.65,4.65,0,0,0,1.5.6" transform="translate(-202.663 1515.635)"/><path class="e" d="M641.436-779.689c-.11-.047-.171.365-.144.52s.4.141.568.113a.317.317,0,0,0,.283-.294c-.007-.134-.239-.744-.329-.744s-.268.448-.377.4" transform="translate(-197.329 1505.719)"/><path class="e" d="M642.138-788.572c-.087-.151-.736-.133-.9-.143a1.83,1.83,0,0,1-.736-.273c-.09-.1-.164.4-.311.466s.074.161.136.108-.006.258-.072.365.433.182.492.346a.415.415,0,0,0,.459.235c.194-.032.587-.233.725-.248s.289-.706.2-.855" transform="translate(-196.803 1509.832)"/><path class="e" d="M667.656-796.136c.223-.223,1.142-.526,1.244-.757a.293.293,0,0,0-.155-.421.366.366,0,0,0-.23.154c-.024.039-1.078.286-1.4.442a3.751,3.751,0,0,0-.837.535,13.365,13.365,0,0,0-.438,1.3c-.079.117.35.543.543.662a.705.705,0,0,0,.524.033,2.737,2.737,0,0,0-.2-1.009c-.1-.253.723-.712.947-.94" transform="translate(-208.663 1513.672)"/><path class="e" d="M667.125-800.645c.346.344.535-.153.917-.1-.008-.7-.953-.46-.917.1" transform="translate(-209.26 1515.457)"/><path class="e" d="M679.658-800.187c-.008.127.962.233,1.245.182s-.057-.492-.473-.466-.759.154-.772.284" transform="translate(-215.048 1515.129)"/><path class="e" d="M614.308-786.819c-.1.095-.016.57.181.584s.5-.718.743-.572.4.2.36.127a6.949,6.949,0,0,0-.8-.429c-.086-.05-.38.2-.484.29" transform="translate(-184.852 1508.961)"/><path class="e" d="M618.957-756.865c0,.079.423.068.493-.063s.032-.234-.083-.234-.411.215-.411.3" transform="translate(-187.019 1495.131)"/><path class="e" d="M613.621-758.7c.2-.038.106.291.156.407s.532.212.629.293.35-.15.544-.125-.064-.672-.391-.652-.582-.294-.659-.332a5.342,5.342,0,0,1-.565-.353,4.627,4.627,0,0,0-1.216-.16.92.92,0,0,0-.637.381c-.044.1.447.16.587.085a1.4,1.4,0,0,1,.931.241.725.725,0,0,0,.621.216" transform="translate(-183.566 1496.266)"/><path class="e" d="M613.81-756.74c0,.079.428.03.53.032s.1-.068-.006-.155-.523.04-.523.123" transform="translate(-184.642 1495.006)"/><path class="e" d="M614.2-760.7c-.112-.044-.2.131-.2.212a.142.142,0,0,0,.136.15c.075,0,.176-.319.065-.362" transform="translate(-184.73 1496.77)"/><path class="e" d="M615.725-760.7a.418.418,0,0,0-.273-.15c-.057,0-.095.142-.085.314s.4-.083.359-.164" transform="translate(-185.36 1496.834)"/><path class="e" d="M616.794-759.262c.172-.085.194-.29.092-.279s-.293-.3-.4-.341-.2.184-.2.284.062.171.138.15.2.267.377.187" transform="translate(-185.783 1496.389)"/><path class="e" d="M705.192-746.407c-.09.047-.519.1-.575.012s-.144.175-.236.217-.042.268.1.2c.1-.047.5.179.835.388.068-.329.125-.659.18-.992-.121.063-.245.148-.3.178" transform="translate(-226.442 1490.246)"/><path class="e" d="M619.13-796.586l-.1.113.1-.113" transform="translate(-187.053 1513.334)"/><path class="e" d="M625.171-778.566l-.1.115.1-.115" transform="translate(-189.841 1505.014)"/><path class="t" d="M751.954-732.606H738.626v-5.275h13.328v5.275" transform="translate(-242.276 1486.227)"/><path class="t" d="M791.545-742.85H778.217v-17.216h13.328v17.216" transform="translate(-260.558 1496.471)"/><path class="t" d="M831.139-765H817.81v-43.04h13.329V-765" transform="translate(-278.84 1518.625)"/><path class="t" d="M870.734-787.521H857.4v-69.286h13.331v69.286" transform="translate(-297.123 1541.143)"/><path class="t" d="M861.368-880.378l4.943,6.414,4.943,6.417H851.482l4.943-6.417,4.943-6.414" transform="translate(-294.388 1552.025)"/><path class="o" d="M362.4-625.392H345.386a1.362,1.362,0,0,1-1.361-1.362,1.361,1.361,0,0,1,1.361-1.361H362.4a1.361,1.361,0,0,1,1.36,1.361,1.363,1.363,0,0,1-1.36,1.362" transform="translate(-60.068 1435.543)"/><path class="u" d="M323-722.515A21.175,21.175,0,0,1,344.18-743.7a21.172,21.172,0,0,1,21.18,21.181c0,.692-.507,10.483-8.486,20.755-2.337,3.1-1.951,9.337-1.93,9.337H333.366c.02,0,.444-6.236-1.878-9.337C323.5-712.045,323-721.823,323-722.515" transform="translate(-50.359 1488.912)"/><path class="n" d="M363.906-648.416v11.073a1.375,1.375,0,0,1-1.374,1.375h-18.8a1.375,1.375,0,0,1-1.371-1.375v-11.073h21.546" transform="translate(-59.299 1444.916)"/><path class="o" d="M340.578-646.276h22.438a1.086,1.086,0,0,0,1.085-1.086,1.086,1.086,0,0,0-1.085-1.086H340.578a1.084,1.084,0,0,0-1.084,1.086,1.084,1.084,0,0,0,1.084,1.086" transform="translate(-57.975 1444.932)"/><path class="o" d="M363.015-641.725H340.578a1.085,1.085,0,0,0-1.084,1.086,1.084,1.084,0,0,0,1.084,1.086h22.438a1.086,1.086,0,0,0,1.085-1.086,1.087,1.087,0,0,0-1.085-1.086" transform="translate(-57.975 1441.826)"/><path class="o" d="M363.015-635H340.578a1.084,1.084,0,0,0-1.084,1.084,1.084,1.084,0,0,0,1.084,1.086h22.438a1.086,1.086,0,0,0,1.085-1.086A1.086,1.086,0,0,0,363.015-635" transform="translate(-57.975 1438.721)"/><path class="v" d="M550.369-699.019l-.123-2.1.182-.01.123,2.1Zm-8.076.521-.148-2.1q2.019-.141,4.045-.272l.135,2.1Q544.306-698.638,542.294-698.5Zm-8.079.614-.172-2.094q2.021-.165,4.051-.319l.159,2.095Q536.23-698.048,534.214-697.884Zm-8.071.7-.2-2.091q2.018-.189,4.047-.365l.184,2.093Q528.154-697.366,526.143-697.179Zm-8.063.8-.218-2.09q2.015-.211,4.042-.411l.207,2.091Q520.091-696.592,518.081-696.382Zm-8.054.887-.241-2.087q2.013-.232,4.036-.456l.232,2.088q-2.019.223-4.027.455Zm-8.041.98-.267-2.084q2.012-.256,4.033-.5l.253,2.086Q503.989-694.77,501.986-694.515Zm-8.032,1.07-.289-2.081q2.007-.279,4.025-.548l.278,2.083Q495.955-693.723,493.954-693.445Zm-8.018,1.161-.313-2.078q2-.3,4.02-.594l.3,2.08Q487.933-692.586,485.935-692.284Zm-8,1.251-.338-2.074q2-.324,4.013-.639l.325,2.076q-2.008.313-4,.637Zm-7.991,1.342-.36-2.07q2-.347,4.005-.684l.348,2.072Q471.932-690.038,469.94-689.691Zm-7.975,1.431-.382-2.065q1.993-.369,4-.729l.372,2.068q-2,.358-3.987.727Zm-7.957,1.521L453.6-688.8q1.986-.392,3.987-.774l.395,2.063q-1.994.382-3.977.772Zm-7.941,1.61-.428-2.057q1.984-.413,3.979-.819l.418,2.06Q448.044-685.542,446.066-685.129Zm-7.922,1.7-.453-2.052q1.981-.436,3.97-.863l.441,2.054Q440.116-683.864,438.145-683.43Zm-7.9,1.788-.475-2.047q1.974-.459,3.959-.907l.464,2.048Q432.211-682.1,430.242-681.642Zm-7.883,1.875-.5-2.041q1.968-.479,3.95-.952l.487,2.045Q424.321-680.245,422.359-679.767ZM414.5-677.8l-.52-2.035q1.962-.5,3.939-1l.509,2.038Q416.456-678.3,414.5-677.8Zm-7.839,2.051-.542-2.029q1.956-.524,3.928-1.039l.531,2.032q-1.966.516-3.917,1.037Zm-7.815,2.138-.566-2.023q1.951-.546,3.916-1.084l.555,2.027Q400.79-674.157,398.844-673.613Zm-7.792,2.225-.587-2.017q1.944-.566,3.9-1.126l.576,2.02q-1.953.557-3.893,1.123Zm-7.765,2.311-.611-2.01q1.938-.589,3.89-1.17l.6,2.014Q385.218-669.665,383.287-669.078Zm-7.741,2.4-.632-2q1.931-.61,3.878-1.213l.622,2.007Q377.471-667.289,375.546-666.681Zm-7.713,2.482-.654-2q1.924-.632,3.865-1.255l.643,2Q369.751-664.829,367.832-664.2Zm-7.685,2.567-.676-1.989q1.916-.652,3.851-1.3l.665,1.992Q362.059-662.283,360.147-661.632Zm-7.657,2.652-.7-1.982q1.91-.674,3.837-1.341l.687,1.986Q354.4-659.651,352.489-658.98Zm-7.627,2.736-.721-1.974q1.9-.694,3.82-1.382l.71,1.977q-1.914.687-3.81,1.379Zm-7.6,2.82-.743-1.966q1.895-.714,3.806-1.425l.731,1.97Q339.153-654.138,337.266-653.425Zm-7.566,2.9-.763-1.957q1.884-.735,3.789-1.466l.754,1.961q-1.9.729-3.78,1.462Zm-7.533,2.987-.784-1.948q1.876-.757,3.773-1.508l.774,1.953Q324.038-648.289,322.167-647.535Zm-7.5,3.069-.807-1.94q1.869-.776,3.756-1.549l.8,1.944Q316.53-645.24,314.668-644.466Zm-7.465,3.152-.829-1.93q1.859-.8,3.74-1.591l.817,1.936Q309.054-642.108,307.2-641.314Zm-7.431,3.235-.85-1.922q1.849-.817,3.723-1.633l.838,1.927q-1.868.813-3.711,1.628Zm-7.393,3.317-.871-1.913q1.838-.837,3.7-1.674l.86,1.918Q294.211-635.6,292.379-634.761Zm-7.357,3.4-.892-1.9q1.829-.857,3.684-1.715l.882,1.908q-1.849.855-3.674,1.71ZM277.7-627.88l-.913-1.892q1.819-.877,3.665-1.756l.9,1.9Q279.517-628.755,277.7-627.88Zm-7.279,3.565-.934-1.882q1.805-.9,3.644-1.8l.924,1.887Q272.229-625.211,270.426-624.316Zm-7.237,3.646-.956-1.871q1.8-.918,3.624-1.839l.947,1.876q-1.825.919-3.615,1.834ZM256-616.94l-.977-1.859q1.783-.938,3.6-1.88l.966,1.865Q257.773-617.875,256-616.94Zm-7.151,3.812-1-1.847q1.773-.958,3.583-1.923l.988,1.854Q250.61-614.082,248.844-613.128Zm-7.106,3.9-1.021-1.837q1.757-.978,3.557-1.965l1.01,1.842Q243.489-610.206,241.737-609.231Zm-7.059,3.981-1.042-1.824q1.744-1,3.534-2.007l1.032,1.83q-1.785,1.007-3.524,2Zm-7.01,4.068-1.065-1.811q1.728-1.017,3.511-2.051l1.054,1.817Q229.392-602.2,227.668-601.182Zm-6.958,4.155-1.089-1.8q1.714-1.038,3.485-2.1l1.077,1.8Q222.418-598.061,220.711-597.027Zm-6.9,4.245-1.113-1.783q1.694-1.057,3.457-2.142l1.1,1.79Q215.5-593.837,213.808-592.782Zm-6.847,4.337-1.137-1.767q1.675-1.078,3.428-2.189l1.125,1.775Q208.629-589.518,206.96-588.445Zm-6.784,4.434-1.162-1.75q1.649-1.095,3.4-2.238l1.149,1.759q-1.741,1.137-3.384,2.229Zm-6.717,4.536-1.19-1.732q1.618-1.11,3.364-2.29l1.176,1.741Q195.071-580.583,193.459-579.475Zm-6.641,4.648-1.22-1.71q1.571-1.122,3.326-2.35l1.2,1.721Q188.384-575.943,186.819-574.827Zm-6.551,4.777-1.257-1.684c1.055-.789,2.159-1.6,3.283-2.421l1.237,1.7C182.415-571.643,181.318-570.833,180.268-570.049Zm-6.418,4.957-1.334-1.623c.046-.037,1.122-.92,3.239-2.55l1.282,1.665c-2.088,1.606-3.174,2.5-3.186,2.508" transform="translate(19.128 1469.256)"/><path class="v" d="M879.755-708.511l-19.922,12.027,4.625-10.587-6.519-9.539,21.815,8.1" transform="translate(-297.37 1476.406)"/><path class="w" d="M323-722.515c0,.692.5,10.47,8.488,20.755,2.322,3.1,1.9,9.337,1.878,9.337H344.18V-743.7A21.175,21.175,0,0,0,323-722.515" transform="translate(-50.359 1488.912)"/></g></g></g></svg>