<svg xmlns="http://www.w3.org/2000/svg" width="12" height="12.002" viewBox="0 0 12 12.002"><defs><style>.a{fill:#1c1c1c;}</style></defs><g transform="translate(-0.449)"><path class="a" d="M12.419,3.529a4.386,4.386,0,0,0-.279-1.456A3.075,3.075,0,0,0,10.384.317,4.4,4.4,0,0,0,8.928.038C8.285.007,8.081,0,6.452,0S4.618.007,3.978.035A4.387,4.387,0,0,0,2.522.314a2.929,2.929,0,0,0-1.065.694A2.955,2.955,0,0,0,.766,2.07,4.4,4.4,0,0,0,.487,3.526C.456,4.169.449,4.373.449,6S.456,7.836.484,8.476A4.385,4.385,0,0,0,.763,9.932,3.074,3.074,0,0,0,2.52,11.688a4.4,4.4,0,0,0,1.456.279C4.616,12,4.82,12,6.449,12S8.283,12,8.923,11.967a4.384,4.384,0,0,0,1.456-.279,3.07,3.07,0,0,0,1.756-1.756,4.4,4.4,0,0,0,.279-1.456c.028-.64.035-.844.035-2.474S12.447,4.169,12.419,3.529Zm-1.081,4.9a3.29,3.29,0,0,1-.206,1.114,1.991,1.991,0,0,1-1.14,1.14,3.3,3.3,0,0,1-1.114.206c-.633.028-.823.035-2.424.035s-1.794-.007-2.424-.035a3.288,3.288,0,0,1-1.114-.206,1.847,1.847,0,0,1-.689-.448,1.866,1.866,0,0,1-.448-.689,3.3,3.3,0,0,1-.206-1.114c-.028-.633-.035-.823-.035-2.424s.007-1.794.035-2.424a3.288,3.288,0,0,1,.206-1.114,1.824,1.824,0,0,1,.45-.689,1.863,1.863,0,0,1,.689-.448,3.3,3.3,0,0,1,1.114-.206c.633-.028.823-.035,2.424-.035s1.794.007,2.424.035a3.29,3.29,0,0,1,1.114.206,1.846,1.846,0,0,1,.689.448,1.866,1.866,0,0,1,.448.689,3.3,3.3,0,0,1,.206,1.114c.028.633.035.823.035,2.424S11.366,7.8,11.338,8.429Zm0,0" transform="translate(0 0)"/><path class="a" d="M128.159,124.5a3.21,3.21,0,1,0,3.21,3.21A3.211,3.211,0,0,0,128.159,124.5Zm0,5.292a2.082,2.082,0,1,1,2.082-2.082A2.083,2.083,0,0,1,128.159,129.792Zm0,0" transform="translate(-121.708 -121.708)"/><path class="a" d="M363.826,89.29a.689.689,0,1,1-.689-.688A.689.689,0,0,1,363.826,89.29Zm0,0" transform="translate(-353.462 -86.512)"/></g></svg>