<svg xmlns="http://www.w3.org/2000/svg" width="12.527" height="11" viewBox="0 0 12.527 11"><defs><style>.a{fill:#1c1c1c;}</style></defs><path class="a" d="M.217,6.339,3.28,7.871a.391.391,0,0,0,.372-.012L6.378,6.268,4.728,7.736A.394.394,0,0,0,4.6,8.03V11.6a.392.392,0,0,0,.7.236l1.324-1.767L9.9,11.945a.391.391,0,0,0,.577-.264L12.519,1.468a.392.392,0,0,0-.526-.443L.249,5.621a.394.394,0,0,0-.032.718Zm11.394-4.32L9.816,10.994,6.713,9.22a.391.391,0,0,0-.507.105l-.827,1.1V8.206L9.842,4.239A.393.393,0,0,0,9.386,3.6L3.441,7.073,1.357,6.031Z" transform="translate(0 -0.997)"/></svg>