<svg xmlns="http://www.w3.org/2000/svg" width="13.766" height="11.012" viewBox="0 0 13.766 11.012"><defs><style>.a{fill:#1c1c1c;}</style></defs><path class="a" d="M13.765,49.3a5.956,5.956,0,0,1-1.626.439,2.771,2.771,0,0,0,1.241-1.536,5.693,5.693,0,0,1-1.789.673A2.849,2.849,0,0,0,9.53,48a2.81,2.81,0,0,0-2.755,3.413A8.029,8.029,0,0,1,.958,48.507a2.751,2.751,0,0,0,.867,3.714,2.82,2.82,0,0,1-1.275-.342v.03a2.8,2.8,0,0,0,2.261,2.73,2.858,2.858,0,0,1-.74.091,2.533,2.533,0,0,1-.534-.047,2.844,2.844,0,0,0,2.637,1.936A5.727,5.727,0,0,1,.675,57.8,5.366,5.366,0,0,1,0,57.765a8.035,8.035,0,0,0,4.329,1.247,7.912,7.912,0,0,0,8.032-7.907c0-.123,0-.241-.01-.359A5.583,5.583,0,0,0,13.765,49.3Z" transform="translate(0 -48)"/></svg>