<svg xmlns="http://www.w3.org/2000/svg" width="24" height="24" viewBox="0 0 24 24"><defs><style>.a{fill:none;}.b{fill:#1c1c1c;}</style></defs><g transform="translate(21324 -4047)"><rect class="a" width="24" height="24" rx="2" transform="translate(-21324 4047)"/><g transform="translate(-21319 4053.562)"><path class="b" d="M195.1,108.384l-3.264-1.786a.6.6,0,0,0-.887.526v3.541a.6.6,0,0,0,.883.528l3.264-1.755a.6.6,0,0,0,0-1.054Zm-3.285,1.836v-2.646l2.439,1.335Zm0,0" transform="translate(-185.315 -103.54)"/><path class="b" d="M14.89,2.6V2.59A3.255,3.255,0,0,0,14.228.9,2.479,2.479,0,0,0,12.611.17L12.537.162l-.026,0C10.527.019,7.533,0,7.5,0H7.5c-.03,0-3.025.019-5.026.159l-.026,0L2.375.17A2.414,2.414,0,0,0,.768.926,3.412,3.412,0,0,0,.112,2.581l0,.015C.106,2.645,0,3.8,0,4.965V6.052C0,7.215.106,8.373.11,8.421v.007A3.224,3.224,0,0,0,.77,10.094a2.532,2.532,0,0,0,1.671.724c.061.007.114.013.149.019l.035,0c1.145.105,4.735.157,4.887.16h.009c.03,0,3.025-.019,5.008-.159l.026,0,.084-.009a2.36,2.36,0,0,0,1.593-.738,3.412,3.412,0,0,0,.656-1.655l0-.015c0-.049.11-1.207.11-2.369V4.965C15,3.8,14.894,2.645,14.89,2.6Zm-.769,3.456c0,1.076-.1,2.184-.106,2.286a2.647,2.647,0,0,1-.431,1.179,1.468,1.468,0,0,1-1.037.466l-.094.01c-1.918.134-4.8.155-4.932.156-.149,0-3.686-.055-4.8-.154-.057-.009-.118-.016-.183-.023a1.672,1.672,0,0,1-1.124-.455l-.008-.008A2.4,2.4,0,0,1,.986,8.341C.979,8.264.879,7.143.879,6.052V4.965c0-1.075.1-2.182.106-2.286A2.593,2.593,0,0,1,1.416,1.5a1.539,1.539,0,0,1,1.059-.485l.072-.008C4.493.872,7.4.852,7.5.851s3.006.021,4.934.156l.077.009a1.6,1.6,0,0,1,1.077.472l0,0a2.44,2.44,0,0,1,.423,1.184c.007.073.107,1.2.107,2.29Zm0,0"/></g></g></svg>