<svg xmlns="http://www.w3.org/2000/svg" xmlns:xlink="http://www.w3.org/1999/xlink" width="118" height="118" viewBox="0 0 118 118"><defs><style>.a{fill:#fff;}.b{fill:#2d3e50;}.c{fill:#1d75b8;stroke:#1d75b8;stroke-width:0.3px;}.d{filter:url(#a);}</style><filter id="a" x="0" y="0" width="118" height="118" filterUnits="userSpaceOnUse"><feOffset dy="1" input="SourceAlpha"/><feGaussianBlur stdDeviation="8" result="b"/><feFlood flood-color="#c6dade"/><feComposite operator="in" in2="b"/><feComposite in="SourceGraphic"/></filter></defs><g transform="translate(-135 -163)"><g class="d" transform="matrix(1, 0, 0, 1, 135, 163)"><circle class="a" cx="35" cy="35" r="35" transform="translate(24 23)"/></g><g transform="translate(176.852 201.291)"><g transform="translate(-0.004)"><path class="b" d="M32.735,36.479l-.647-.826-3.072,3.412h0a.83.83,0,0,1-1.252,0l-3.129-3.383-3.065,3.3a.83.83,0,0,1-1.245.039l-3.251-3.34-2.954,3.38-.054.064a.826.826,0,0,1-1.262,0L9.711,35.681,6.517,39.065h0a.83.83,0,0,1-1.245,0L2.236,35.628l-.629.812a.873.873,0,0,1-.715.4A.944.944,0,0,1,0,35.849V.991A.941.941,0,0,1,.884,0H33.4A.944.944,0,0,1,34.3.991V35.842h0a1.023,1.023,0,0,1-.311.747.815.815,0,0,1-1.248-.1Zm-7.3-9.216a.765.765,0,0,1,0,1.513H6.793a.765.765,0,0,1,0-1.513Zm3.727-4.882a.765.765,0,0,1,0,1.516H6.6a.765.765,0,0,1,0-1.516Zm.032-4.882a.751.751,0,0,1,.629,1,.687.687,0,0,1-.654.519H6.6a.765.765,0,0,1,0-1.516ZM32.478,2.021H1.811V33.378a.819.819,0,0,1,.994.129.247.247,0,0,1,.05.054h0l3.09,3.48,3.179-3.38a.83.83,0,0,1,1.245,0h0l3.061,3.415L16.4,33.668a.826.826,0,0,1,1.241-.036h0L20.908,37l3.1-3.312a.826.826,0,0,1,1.241,0l3.1,3.362,3.115-3.458a.823.823,0,0,1,1.009-.2Z" transform="translate(0.004)"/></g></g><path class="c" d="M-9.642-6.84h-2.424V-8.5h6.72V-6.84H-7.77V0H-9.642ZM-2.226-8.5H-.678L3.018,0H.906L.174-1.8h-3.3L-3.834,0H-5.9Zm.72,2.472-1.032,2.64H-.462ZM6.462-4.44,3.654-8.5H6.006L7.818-5.52,9.558-8.5h2.268L9.078-4.476,12.15,0H9.8L7.722-3.42,5.706,0H3.486Z" transform="translate(194.807 215.291)"/></g></svg>