<svg xmlns="http://www.w3.org/2000/svg" xmlns:xlink="http://www.w3.org/1999/xlink" width="128" height="128" viewBox="0 0 128 128"><defs><style>.a{fill:#fff;}.b{fill:#1d75b8;}.c{fill:#2d3e50;}.d{filter:url(#a);}</style><filter id="a" x="0" y="0" width="128" height="128" filterUnits="userSpaceOnUse"><feOffset dy="1" input="SourceAlpha"/><feGaussianBlur stdDeviation="8" result="b"/><feFlood flood-color="#c6dade"/><feComposite operator="in" in2="b"/><feComposite in="SourceGraphic"/></filter></defs><g transform="translate(-130 -158)"><g class="d" transform="matrix(1, 0, 0, 1, 130, 158)"><circle class="a" cx="40" cy="40" r="40" transform="translate(24 23)"/></g><g transform="translate(171.343 197.895)"><path class="b" d="M81.929,40.8a1.436,1.436,0,0,1-.8.158,3.517,3.517,0,0,1-.981-.134,5.03,5.03,0,0,1-.8-.3l-.412,1.1a6.526,6.526,0,0,0,.646.263,4.476,4.476,0,0,0,1.134.215v1.139h1.206V42.076a2.527,2.527,0,0,0,.79-.249,1.757,1.757,0,0,0,.522-.411,1.474,1.474,0,0,0,.287-.521,1.939,1.939,0,0,0,.086-.569,1.717,1.717,0,0,0-.148-.737,1.7,1.7,0,0,0-.412-.55,2.916,2.916,0,0,0-.622-.416,7.077,7.077,0,0,0-.78-.336q-.278-.1-.474-.178a2.108,2.108,0,0,1-.33-.168.573.573,0,0,1-.2-.2.525.525,0,0,1-.062-.263.482.482,0,0,1,.2-.4,1.107,1.107,0,0,1,.66-.153,3.9,3.9,0,0,1,.876.1,4.43,4.43,0,0,1,.732.23l.3-1.148a3.792,3.792,0,0,0-.569-.191,5.38,5.38,0,0,0-.857-.144v-1H80.718v1.034a2.41,2.41,0,0,0-.727.244,1.625,1.625,0,0,0-.5.407,1.608,1.608,0,0,0-.282.531,2.03,2.03,0,0,0-.091.608,1.465,1.465,0,0,0,.541,1.2,2.487,2.487,0,0,0,.545.34q.3.139.617.254t.574.215a2.477,2.477,0,0,1,.412.206.844.844,0,0,1,.249.234.548.548,0,0,1,.086.311A.52.52,0,0,1,81.929,40.8Z" transform="translate(-51.444 -21.275)"/><path class="b" d="M61.617,25.479a9.615,9.615,0,0,0,4.892,1.482q.145,0,.29,0t.29,0a9.615,9.615,0,0,0,4.892-1.482,9.115,9.115,0,0,0,4.254-7.42A9.47,9.47,0,0,0,72.5,10.122L70.749,8.794,71.859,4.1a.811.811,0,0,0-.789-1H62.528a.811.811,0,0,0-.789,1l1.11,4.691L61.1,10.122a9.47,9.47,0,0,0-3.734,7.937A9.114,9.114,0,0,0,61.617,25.479Zm.46-14.064,1.445-1.1a.805.805,0,0,0,.349.082h1.657a.811.811,0,0,0,0-1.622H64.512l-.959-4.052h6.492l-.959,4.052h-.729a.811.811,0,0,0,0,1.622h1.371a.805.805,0,0,0,.349-.082l1.445,1.1a7.848,7.848,0,0,1,3.093,6.577,7.513,7.513,0,0,1-3.5,6.118,7.884,7.884,0,0,1-4.067,1.229c-.163,0-.327,0-.49,0a7.884,7.884,0,0,1-4.067-1.229,7.513,7.513,0,0,1-3.5-6.118,7.848,7.848,0,0,1,3.093-6.577Z" transform="translate(-37.091 0)"/><path class="c" d="M53.941,81.086a1.935,1.935,0,0,0-2.272-.583l-12.1,5.141-1.079.315a5.225,5.225,0,0,1-1.177.2c-.865.047-2.124.073-2.343.088H27.86a.506.506,0,0,1-.319-.114.623.623,0,0,1-.3-.525.643.643,0,0,1,.659-.628h8.055a2.032,2.032,0,0,0,2.009-1.805,1.907,1.907,0,0,0,.015-.243,2.043,2.043,0,0,0-1.633-2.01c-4.5-.895-8.948-1.97-13.565-1.668-.18.012-1.8.078-2.658.158v12.1l.044,1.01c1.6.2,12.429,1.538,12.606,1.57a7.016,7.016,0,0,0,5.07-.761l.024-.014s10.86-6.2,15.618-9.347a1.986,1.986,0,0,0,.452-2.887Z" transform="translate(-11.715 -51.149)"/><rect class="b" width="4.417" height="14.531" transform="translate(2.657 26.854)"/></g></g></svg>