<svg xmlns="http://www.w3.org/2000/svg" xmlns:xlink="http://www.w3.org/1999/xlink" width="192" height="192" viewBox="0 0 192 192"><defs><style>.a,.d{fill:#937de2;}.a{opacity:0.751;}.b{fill:#fdd7bd;}.c{fill:#fff;}.e{fill:#7570d6;}.f{clip-path:url(#c);}.g{clip-path:url(#d);}.h{fill:#ff4155;}.i{fill:#e80454;}.j{filter:url(#a);}</style><filter id="a" x="0" y="0" width="192" height="192" filterUnits="userSpaceOnUse"><feOffset dy="1" input="SourceAlpha"/><feGaussianBlur stdDeviation="8" result="b"/><feFlood flood-color="#e23838" flood-opacity="0.161"/><feComposite operator="in" in2="b"/><feComposite in="SourceGraphic"/></filter><clipPath id="c"><path class="a" d="M37.5,75a37.5,37.5,0,0,1,0-75c6.3,0,11.993,2.012,17.453,4.887C67.041,9.386,75,23.085,75,37.5A37.5,37.5,0,0,1,37.5,75Z"/></clipPath><clipPath id="d"><path class="b" d="M39.46,16.62a3.709,3.709,0,0,0-3.394-2.282,26.038,26.038,0,0,0-3.563.714c-1.448.381-2.891.844-4.287,1.29l-.014.005c-1.258.4-2.447.783-3.527,1.068q-.2.052-.383.1l-2.331.577-.055-2.4c-.019-.845.007-1.708.034-2.625a23.853,23.853,0,0,0-.293-5.8,15.411,15.411,0,0,0-3.244-5.7c-.079-.1-.152-.187-.217-.268C16.9-.277,14.833-.135,13.329.261a7.2,7.2,0,0,0-1.912.754c-.633,1.051-.1,2.975.421,4.838a11.612,11.612,0,0,1,.689,4.513l0,.01c-.213,1.224-.379,2.551-.54,3.837-.57,4.548-1.16,9.251-3.941,12.352C6.861,27.885,4.8,28.449,2.8,28.995c-.344.093-.744.2-1.13.315L0,29.8,5.227,49.638l1.8-.39c2.84-.616,8.4.32,10.744.77a5.135,5.135,0,0,0,1.192.136,7.686,7.686,0,0,0,1.115-.247c4.636-1.231,14.352-3.667,17.785-4.731a3.516,3.516,0,0,0,1.159-.828,3.714,3.714,0,0,0,1.084-3,5.974,5.974,0,0,0-.584-1.842l-.746-1.154.847-1.08a4.789,4.789,0,0,0,.984-2.46,7.374,7.374,0,0,0-.821-3.962l-.513-.993.607-.937a5.784,5.784,0,0,0,.649-3.839,5.922,5.922,0,0,0-.776-2.293l-.7-.835.519-.994a5.71,5.71,0,0,0-.116-4.34Z"/></clipPath></defs><g transform="translate(-4522 9995)"><g class="j" transform="matrix(1, 0, 0, 1, 4522, -9995)"><circle class="c" cx="72" cy="72" r="72" transform="translate(24 23)"/></g><g transform="translate(4581 -9937)"><g transform="translate(10 1.935)"><circle class="d" cx="32" cy="32" r="32" transform="translate(0 0.065)"/><path class="e" d="M5197.367-9856.828a33.464,33.464,0,0,1-14-2.709c-9.008-3.756-18.684-13.048-19.054-29.88.157-14.306,8.5-23.158,17.023-27.565a35.748,35.748,0,0,1,17.948-3.853s-24.817,8.107-25.6,30.252S5197.367-9856.828,5197.367-9856.828Z" transform="translate(-5164.286 9920.894)"/></g><g class="f"><g transform="matrix(-0.966, 0.259, -0.259, -0.966, 87.854, 55.349)"><g transform="translate(33.934 0)"><g class="g" transform="translate(0)"><path class="b" d="M39.46,16.62a3.709,3.709,0,0,0-3.394-2.282,26.038,26.038,0,0,0-3.563.714c-1.448.381-2.891.844-4.287,1.29l-.014.005c-1.258.4-2.447.783-3.527,1.068q-.2.052-.383.1l-2.331.577-.055-2.4c-.019-.845.007-1.708.034-2.625a23.853,23.853,0,0,0-.293-5.8,15.411,15.411,0,0,0-3.244-5.7c-.079-.1-.152-.187-.217-.268C16.9-.277,14.833-.135,13.329.261a7.2,7.2,0,0,0-1.912.754c-.633,1.051-.1,2.975.421,4.838a11.612,11.612,0,0,1,.689,4.513l0,.01c-.213,1.224-.379,2.551-.54,3.837-.57,4.548-1.16,9.251-3.941,12.352C6.861,27.885,4.8,28.449,2.8,28.995c-.344.093-.744.2-1.13.315L0,29.8,5.227,49.638l1.8-.39c2.84-.616,8.4.32,10.744.77a5.135,5.135,0,0,0,1.192.136,7.686,7.686,0,0,0,1.115-.247c4.636-1.231,14.352-3.667,17.785-4.731a3.516,3.516,0,0,0,1.159-.828,3.714,3.714,0,0,0,1.084-3,5.974,5.974,0,0,0-.584-1.842l-.746-1.154.847-1.08a4.789,4.789,0,0,0,.984-2.46,7.374,7.374,0,0,0-.821-3.962l-.513-.993.607-.937a5.784,5.784,0,0,0,.649-3.839,5.922,5.922,0,0,0-.776-2.293l-.7-.835.519-.994a5.71,5.71,0,0,0-.116-4.34"/></g></g><path class="h" d="M23.253,0,2.286,1.446l-.863.1.036.062C.325,1.947-.263,2.621.114,3.284l13.831,24.29c.377.663,1.608,1.115,2.949,1.146l.036.062.862-.105,11.924-1.413" transform="translate(0 29.091)"/><path class="i" d="M10.983.063,10.966,0l-.4.105L.08,2.868c-.907.5,6.138,27.243,7.174,27.231l10.487-2.762.4-.1-.016-.062a1.518,1.518,0,0,0,.623-1.67l-6.4-24.29A1.518,1.518,0,0,0,10.983.063" transform="translate(22.366 26.269)"/></g></g></g></g></svg>